<?xml version="1.0" encoding="utf-8"?>
<!-- Generator: Adobe Illustrator 19.0.0, SVG Export Plug-In . SVG Version: 6.00 Build 0)  -->
<svg version="1.1" id="Layer_1" xmlns="http://www.w3.org/2000/svg" xmlns:xlink="http://www.w3.org/1999/xlink" x="0px" y="0px"
	 viewBox="92.086 11 108.978 30" enable-background="new 92.086 11 108.978 30" xml:space="preserve">
<g>
	<path fill="#AFC6D6" d="M134.643,41h3.195l1.02-1.976h4.206l0.41,1.976h3.157l-2.504-11.425h-3.271L134.643,41z M140.03,36.768
		l1.926-3.699l0.694,3.699H140.03z M147.478,41h2.959l1.093-7.017L155.912,41h2.909l1.807-11.425h-2.952l-1.091,6.948l-4.259-6.948
		h-3.04L147.478,41z M160.766,41h2.946l0.808-5.014L167.602,41h3.849l-4.05-6.046l5.278-5.379h-3.671l-4.222,4.737l0.732-4.737
		h-2.946L160.766,41z M125.445,23.694h2.949v-4.392h0.035l2.775,4.392h3.669l-3.462-4.68c0.787-0.174,1.386-0.549,1.794-1.128
		c0.41-0.596,0.614-1.291,0.614-2.086c-0.01-1.221-0.382-2.108-1.12-2.669c-0.732-0.556-1.676-0.833-2.835-0.833h-4.419
		L125.445,23.694z M128.395,17.398v-2.843h0.299c0.138,0,0.272,0,0.4,0c0.123,0,0.249,0.009,0.378,0.03
		c0.242,0.039,0.466,0.112,0.677,0.214c0.212,0.088,0.378,0.229,0.501,0.421c0.128,0.19,0.191,0.444,0.191,0.76
		c0,0.302-0.063,0.541-0.191,0.724c-0.123,0.191-0.289,0.337-0.501,0.435c-0.211,0.103-0.435,0.169-0.677,0.199
		c-0.251,0.039-0.511,0.06-0.777,0.06H128.395z M141.464,23.694h2.654v-7.763h-2.654v0.761c-0.279-0.355-0.626-0.612-1.034-0.775
		c-0.41-0.159-0.841-0.236-1.294-0.236c-1.127,0.02-2.025,0.425-2.697,1.217c-0.695,0.786-1.047,1.754-1.057,2.905
		c0.01,1.144,0.367,2.112,1.072,2.899c0.689,0.814,1.592,1.232,2.712,1.253c0.451,0,0.886-0.096,1.306-0.287
		c0.4-0.181,0.72-0.46,0.964-0.833h0.027V23.694z M138.125,19.834c0-0.495,0.153-0.912,0.458-1.251
		c0.291-0.335,0.709-0.506,1.258-0.516c0.546,0.01,0.969,0.181,1.276,0.516c0.289,0.338,0.435,0.756,0.435,1.251
		c0,0.491-0.146,0.899-0.435,1.224c-0.307,0.339-0.73,0.507-1.276,0.507c-0.549,0-0.967-0.169-1.258-0.507
		C138.278,20.732,138.125,20.324,138.125,19.834z M145.904,12.963c0,0.43,0.153,0.788,0.455,1.067
		c0.272,0.314,0.617,0.474,1.034,0.474c0.417,0,0.775-0.159,1.07-0.474c0.268-0.279,0.41-0.637,0.42-1.069
		c-0.009-0.431-0.151-0.8-0.42-1.105c-0.295-0.28-0.652-0.426-1.07-0.435c-0.417,0.009-0.762,0.155-1.034,0.435
		C146.058,12.161,145.904,12.53,145.904,12.963z M146.073,23.694h2.654v-7.763h-2.654V23.694z M149.802,18.188h0.937v5.506h2.654
		v-5.506h1.86v-2.257h-1.86v-1.25c-0.02-0.862,0.287-1.292,0.918-1.292c0.335,0.009,0.647,0.095,0.942,0.257v-2.371
		c-0.361-0.184-0.74-0.274-1.14-0.274c-1.042,0.01-1.914,0.423-2.617,1.244c-0.351,0.41-0.566,0.833-0.644,1.265
		c-0.086,0.433-0.123,0.914-0.112,1.445v0.978h-0.937L149.802,18.188L149.802,18.188z M155.647,18.188h0.935v5.506h2.655v-5.506
		h1.86v-2.257h-1.86v-1.25c-0.02-0.862,0.286-1.292,0.919-1.292c0.335,0.009,0.646,0.095,0.941,0.257v-2.371
		c-0.36-0.184-0.74-0.274-1.14-0.274c-1.04,0.01-1.914,0.423-2.616,1.244c-0.353,0.41-0.566,0.833-0.645,1.265
		c-0.085,0.433-0.123,0.914-0.114,1.445v0.978h-0.935L155.647,18.188L155.647,18.188z M164.426,18.704
		c0.096-0.413,0.286-0.727,0.572-0.937c0.281-0.202,0.616-0.302,1.007-0.302c0.382,0,0.711,0.11,0.993,0.33
		c0.277,0.222,0.447,0.524,0.513,0.909H164.426z M169.984,19.994c-0.039-2.818-1.407-4.257-4.104-4.315
		c-1.236,0.01-2.229,0.375-2.981,1.1c-0.771,0.726-1.161,1.743-1.171,3.052c0.01,1.326,0.423,2.342,1.241,3.045
		c0.8,0.717,1.831,1.077,3.097,1.077c0.889,0,1.689-0.217,2.398-0.647c0.713-0.432,1.185-1.102,1.42-2.008l-2.566-0.005
		c-0.281,0.486-0.703,0.726-1.272,0.715c-1.11-0.01-1.663-0.587-1.663-1.726h5.601v-0.287H169.984z M171.247,12.963
		c0,0.43,0.154,0.788,0.456,1.067c0.271,0.314,0.616,0.474,1.034,0.474c0.417,0,0.775-0.159,1.07-0.474
		c0.268-0.279,0.41-0.637,0.419-1.069c-0.009-0.431-0.151-0.8-0.419-1.105c-0.295-0.28-0.653-0.426-1.07-0.435
		c-0.417,0.009-0.763,0.155-1.034,0.435C171.402,12.161,171.247,12.53,171.247,12.963z M171.416,23.694h2.654v-7.763h-2.654V23.694z
		 M176.431,21.15l-0.961,1.914c0.941,0.581,1.966,0.878,3.072,0.889c0.934,0,1.759-0.227,2.479-0.68
		c0.728-0.465,1.097-1.2,1.118-2.204c-0.01-0.717-0.215-1.255-0.612-1.615c-0.401-0.355-0.919-0.586-1.56-0.7
		c-0.223-0.04-0.488-0.098-0.79-0.179c-0.146-0.037-0.268-0.105-0.37-0.199c-0.103-0.078-0.156-0.179-0.156-0.303
		c0.01-0.19,0.117-0.332,0.317-0.419c0.204-0.068,0.383-0.103,0.541-0.103c0.515,0.01,1.011,0.137,1.484,0.378l0.923-1.757
		c-0.788-0.337-1.61-0.502-2.465-0.493c-0.875,0-1.65,0.216-2.32,0.649c-0.708,0.454-1.07,1.152-1.091,2.096
		c0.01,0.679,0.191,1.165,0.541,1.454c0.165,0.154,0.339,0.275,0.525,0.362c0.195,0.103,0.393,0.186,0.598,0.244
		c0.239,0.051,0.467,0.088,0.686,0.119c0.209,0.039,0.391,0.09,0.543,0.155c0.355,0.099,0.538,0.295,0.549,0.589
		c-0.01,0.199-0.116,0.342-0.317,0.435c-0.214,0.101-0.425,0.149-0.637,0.149c-0.337,0-0.694-0.084-1.074-0.251
		C177.067,21.531,176.724,21.35,176.431,21.15z M185.858,18.704c0.095-0.413,0.287-0.727,0.571-0.937
		c0.283-0.202,0.617-0.302,1.007-0.302c0.383,0,0.713,0.11,0.994,0.33c0.277,0.222,0.449,0.524,0.513,0.909H185.858z
		 M191.417,19.994c-0.037-2.818-1.407-4.257-4.104-4.315c-1.235,0.01-2.229,0.375-2.982,1.1c-0.77,0.726-1.16,1.743-1.17,3.052
		c0.01,1.326,0.424,2.342,1.24,3.045c0.8,0.717,1.831,1.077,3.099,1.077c0.887,0,1.686-0.217,2.398-0.647
		c0.711-0.432,1.185-1.102,1.418-2.008l-2.563-0.005c-0.282,0.486-0.705,0.726-1.274,0.715c-1.11-0.01-1.664-0.587-1.664-1.726
		h5.602L191.417,19.994L191.417,19.994z M195.647,15.931h-2.654v7.763h2.654v-4.038c-0.01-0.504,0.098-0.926,0.327-1.271
		c0.209-0.339,0.594-0.513,1.153-0.523c0.358,0,0.628,0.063,0.816,0.191c0.184,0.144,0.303,0.319,0.361,0.53
		c0.07,0.215,0.111,0.436,0.121,0.668c-0.01,0.229-0.015,0.447-0.015,0.649v3.794h2.655v-4.799c0-0.969-0.222-1.75-0.664-2.344
		c-0.466-0.572-1.216-0.861-2.248-0.871c-1.046-0.025-1.871,0.393-2.475,1.248h-0.031V15.931z M128.917,38.748l0.387-2.446
		l1.217-0.005c0.438-0.003,0.937,0.087,1.213,0.475c0.134,0.188,0.169,0.54,0.116,0.878c-0.048,0.306-0.208,0.513-0.395,0.676
		c-0.4,0.351-0.913,0.422-1.428,0.422L128.917,38.748L128.917,38.748z M129.569,40.99c1.297,0,2.393-0.027,3.274-0.496
		c0.899-0.477,1.571-1.048,1.873-2.193c0.194-0.742,0.219-1.474-0.016-2.142c-0.309-0.878-1.087-1.114-1.747-1.232
		c0.932-0.49,1.467-1.288,1.62-2.342c0.155-1.075-0.051-1.885-0.586-2.33c-0.536-0.447-1.494-0.669-2.516-0.669h-4.104
		l-1.802,11.404H129.569z M129.657,34.084l0.363-2.172h0.902c0.822,0,0.933,0.687,0.845,1.187c-0.097,0.556-0.695,0.986-1.413,0.986
		L129.657,34.084L129.657,34.084z"/>
	<g>
		<path fill="#AFC6D6" d="M92.086,12.408v28.489h28.489V12.408H92.086z M119.979,40.298H92.683v-27.29h27.297V40.298z"/>
	</g>
	<path fill="#AFC6D6" d="M106.325,29.933l-8.581,8.616l-3.354-3.444l8.537-8.572l-1.679-1.606l0.031-3.379l-1.227-1.165
		l-0.031,2.706l-1.176,1.172l-4.195-4.211l-1.114,1.067c0.018-2.254,1.054-4.246,2.387-5.357c1.333-1.111,3.443-1.533,4.956-0.039
		l4.232,4.177l-0.976,1.063l2.191,2.212l2.191-2.212l-0.976-1.063l4.231-4.177c1.514-1.494,3.624-1.073,4.957,0.039
		c1.333,1.111,2.369,3.102,2.387,5.357l-1.114-1.067l-4.195,4.211l-1.177-1.172l-0.032-2.706l-1.227,1.165l0.031,3.379l-1.679,1.606
		l8.537,8.572l-3.354,3.444L106.325,29.933z"/>
</g>
</svg>
