<?xml version="1.0" encoding="utf-8"?>
<!-- Generator: Adobe Illustrator 19.0.0, SVG Export Plug-In . SVG Version: 6.00 Build 0)  -->
<svg version="1.1" id="Layer_1" xmlns="http://www.w3.org/2000/svg" xmlns:xlink="http://www.w3.org/1999/xlink" x="0px" y="0px"
	 viewBox="-428.996 893.673 158.708 41.952" enable-background="new -428.996 893.673 158.708 41.952" xml:space="preserve">
<g id="XMLID_5569_">
	<g id="XMLID_342_">
		<path id="XMLID_4919_" fill="#AFC6D6" d="M-330.477,934.484c1.124-0.664,0.642-4.538-1.075-8.71
			c-1.744-4.231-4.117-7.202-5.29-6.583c-1.18,0.629-0.674,4.652,1.125,8.925C-333.949,932.33-331.602,935.149-330.477,934.484
			L-330.477,934.484z"/>
		<path id="XMLID_4276_" fill="#AFC6D6" d="M-339.289,910.229c1.206-0.603,0.687-4.685-1.169-9.18
			c-1.879-4.562-4.435-7.87-5.698-7.315c-1.268,0.556-0.712,4.802,1.23,9.415C-343.013,907.693-340.495,910.832-339.289,910.229
			L-339.289,910.229z"/>
		<path id="XMLID_3633_" fill="#AFC6D6" d="M-343.664,935.537c1.361,0.643,3.226-2.33,4.184-6.626
			c0.952-4.27,0.655-8.29-0.676-8.998c-1.338-0.714-3.224,2.204-4.205,6.539C-345.345,930.813-345.025,934.895-343.664,935.537
			L-343.664,935.537z"/>
		<path id="XMLID_2990_" fill="#AFC6D6" d="M-335.961,910.376c1.318,0.742,3.124-2.075,4.058-6.254
			c0.927-4.16,0.643-8.166-0.645-8.97c-1.297-0.815-3.128,1.939-4.082,6.165C-337.588,905.56-337.279,909.634-335.961,910.376
			L-335.961,910.376z"/>
		<path id="XMLID_2347_" fill="#AFC6D6" d="M-322.742,907.504c-0.619-1.611-3.472-1.701-6.427-0.163
			c-3.015,1.576-4.965,4.227-4.296,5.887c0.661,1.651,3.648,1.651,6.614,0.034C-323.943,911.674-322.124,909.115-322.742,907.504
			L-322.742,907.504z"/>
		<path id="XMLID_1703_" fill="#AFC6D6" d="M-342.69,916.27c-0.691-1.678-3.884-1.687-7.179,0.038
			c-3.371,1.757-5.533,4.618-4.783,6.35c0.751,1.725,4.089,1.616,7.393-0.193C-344.021,920.696-341.998,917.948-342.69,916.27
			L-342.69,916.27z"/>
		<path id="XMLID_1041_" fill="#AFC6D6" d="M-321.285,923.958c0.321-1.547-1.982-4.262-5.206-6.107
			c-3.3-1.902-6.313-2.171-6.653-0.562c-0.342,1.607,2.136,4.428,5.459,6.258C-324.44,925.341-321.606,925.505-321.285,923.958
			L-321.285,923.958z"/>
		<path id="XMLID_348_" fill="#AFC6D6" d="M-341.424,912.947c0.354-1.635-2.269-4.631-5.935-6.742
			c-3.761-2.157-7.192-2.572-7.576-0.869c-0.379,1.709,2.449,4.836,6.242,6.923C-345,914.302-341.778,914.582-341.424,912.947
			L-341.424,912.947z"/>
	</g>
	<g id="XMLID_250_">
		<path id="XMLID_341_" fill="#AFC6D6" d="M-417.884,908.354c0,0.145-0.008,0.271-0.023,0.377c-0.016,0.106-0.039,0.192-0.075,0.259
			c-0.035,0.062-0.075,0.114-0.126,0.141c-0.051,0.031-0.106,0.047-0.165,0.047h-4.179v12.909c0,0.062-0.016,0.114-0.047,0.161
			c-0.031,0.047-0.083,0.083-0.161,0.11c-0.075,0.027-0.176,0.051-0.302,0.071c-0.13,0.019-0.286,0.027-0.478,0.027
			c-0.184,0-0.341-0.008-0.471-0.027c-0.13-0.02-0.236-0.043-0.31-0.071c-0.079-0.027-0.13-0.062-0.161-0.11
			c-0.031-0.047-0.047-0.098-0.047-0.161v-12.909h-4.177c-0.059,0-0.114-0.016-0.165-0.047c-0.051-0.027-0.091-0.079-0.122-0.141
			c-0.027-0.066-0.055-0.153-0.075-0.259c-0.019-0.106-0.027-0.232-0.027-0.377s0.008-0.275,0.027-0.385
			c0.019-0.11,0.047-0.2,0.075-0.267c0.031-0.07,0.07-0.122,0.122-0.149c0.051-0.031,0.106-0.047,0.165-0.047h10.335
			c0.059,0,0.114,0.016,0.165,0.047c0.051,0.027,0.091,0.079,0.126,0.149c0.035,0.067,0.059,0.157,0.075,0.267
			C-417.892,908.079-417.884,908.209-417.884,908.354L-417.884,908.354z"/>
		<g id="XMLID_333_">
			<path id="XMLID_334_" fill="#AFC6D6" d="M-408.745,914.466c-0.212-0.691-0.53-1.275-0.95-1.758
				c-0.42-0.482-0.946-0.852-1.577-1.103c-0.631-0.255-1.373-0.381-2.224-0.381c-0.879,0-1.648,0.141-2.307,0.424
				c-0.659,0.287-1.208,0.683-1.648,1.196c-0.439,0.514-0.769,1.126-0.989,1.837c-0.216,0.706-0.325,1.483-0.325,2.327
				c0,0.875,0.102,1.656,0.31,2.346c0.208,0.687,0.522,1.275,0.942,1.758c0.42,0.482,0.946,0.851,1.577,1.103
				c0.631,0.255,1.373,0.381,2.224,0.381c0.871,0,1.64-0.145,2.303-0.432c0.66-0.286,1.212-0.687,1.652-1.2s0.773-1.126,0.993-1.833
				c0.224-0.71,0.333-1.487,0.333-2.331C-408.432,915.934-408.538,915.157-408.745,914.466z M-410.594,918.567
				c-0.122,0.498-0.314,0.93-0.577,1.291c-0.263,0.361-0.596,0.639-1.004,0.84s-0.887,0.298-1.44,0.298
				c-0.608,0-1.118-0.11-1.527-0.329c-0.404-0.216-0.73-0.514-0.973-0.883c-0.244-0.373-0.416-0.809-0.518-1.307
				c-0.106-0.498-0.157-1.032-0.157-1.601c0-0.588,0.062-1.134,0.192-1.632c0.126-0.498,0.318-0.93,0.581-1.295
				c0.263-0.365,0.592-0.647,0.997-0.848c0.404-0.2,0.887-0.298,1.448-0.298c0.608,0,1.118,0.11,1.523,0.329
				c0.408,0.216,0.734,0.514,0.969,0.89c0.24,0.377,0.412,0.813,0.514,1.31c0.106,0.498,0.157,1.028,0.157,1.589
				C-410.409,917.519-410.472,918.068-410.594,918.567z"/>
		</g>
		<path id="XMLID_297_" fill="#AFC6D6" d="M-397.124,922.086c0,0.062-0.016,0.118-0.047,0.161c-0.031,0.047-0.083,0.087-0.153,0.118
			c-0.075,0.027-0.176,0.051-0.306,0.067c-0.13,0.016-0.294,0.023-0.494,0.023c-0.204,0-0.377-0.004-0.51-0.016
			c-0.133-0.012-0.247-0.031-0.337-0.058c-0.095-0.027-0.169-0.067-0.224-0.114c-0.059-0.051-0.11-0.11-0.157-0.18l-4.363-5.729
			v5.741c0,0.062-0.016,0.114-0.047,0.157c-0.031,0.039-0.079,0.078-0.149,0.11c-0.071,0.027-0.165,0.051-0.29,0.067
			c-0.122,0.016-0.279,0.023-0.471,0.023c-0.188,0-0.341-0.008-0.463-0.023c-0.126-0.016-0.224-0.039-0.294-0.067
			c-0.075-0.031-0.126-0.07-0.153-0.11c-0.027-0.043-0.039-0.094-0.039-0.157v-15.353c0-0.062,0.012-0.118,0.039-0.161
			c0.027-0.047,0.079-0.087,0.153-0.118c0.071-0.027,0.169-0.051,0.294-0.066c0.122-0.016,0.275-0.023,0.463-0.023
			c0.192,0,0.349,0.008,0.471,0.023c0.126,0.016,0.22,0.039,0.29,0.066c0.07,0.031,0.118,0.071,0.149,0.118
			c0.031,0.043,0.047,0.098,0.047,0.161v9.35l3.896-4.301c0.062-0.079,0.13-0.141,0.196-0.192c0.071-0.047,0.153-0.091,0.247-0.126
			c0.095-0.035,0.208-0.058,0.337-0.07c0.13-0.012,0.286-0.016,0.471-0.016c0.192,0,0.353,0.004,0.482,0.016
			c0.13,0.012,0.236,0.031,0.314,0.058c0.079,0.027,0.137,0.063,0.172,0.102c0.035,0.043,0.051,0.098,0.051,0.169
			c0,0.091-0.023,0.184-0.075,0.275c-0.051,0.095-0.13,0.2-0.247,0.322l-3.728,3.751l4.198,5.462
			c0.098,0.133,0.169,0.236,0.212,0.318C-397.143,921.945-397.124,922.02-397.124,922.086L-397.124,922.086z"/>
		<path id="XMLID_293_" fill="#AFC6D6" d="M-386.369,922.098c0,0.062-0.012,0.114-0.039,0.157c-0.027,0.039-0.075,0.078-0.145,0.11
			c-0.066,0.027-0.157,0.051-0.271,0.067c-0.11,0.016-0.247,0.023-0.408,0.023c-0.172,0-0.318-0.008-0.428-0.023
			c-0.114-0.016-0.2-0.039-0.267-0.067c-0.062-0.031-0.11-0.07-0.13-0.11c-0.023-0.043-0.035-0.094-0.035-0.157v-1.37
			c-0.592,0.651-1.173,1.122-1.75,1.421c-0.573,0.298-1.157,0.447-1.746,0.447c-0.691,0-1.271-0.114-1.742-0.345
			c-0.471-0.228-0.855-0.542-1.146-0.938c-0.29-0.393-0.498-0.852-0.627-1.377c-0.126-0.526-0.188-1.165-0.188-1.914v-6.274
			c0-0.062,0.012-0.114,0.039-0.157c0.027-0.039,0.079-0.079,0.157-0.114c0.075-0.035,0.176-0.059,0.298-0.071
			s0.275-0.016,0.459-0.016c0.184,0,0.337,0.004,0.459,0.016c0.122,0.012,0.22,0.035,0.294,0.071
			c0.071,0.035,0.122,0.075,0.153,0.114c0.031,0.043,0.047,0.095,0.047,0.157v6.027c0,0.604,0.043,1.091,0.134,1.456
			c0.087,0.365,0.22,0.675,0.4,0.93c0.18,0.259,0.412,0.459,0.687,0.6c0.275,0.141,0.596,0.212,0.966,0.212
			c0.474,0,0.95-0.169,1.421-0.506c0.474-0.337,0.973-0.832,1.503-1.483v-7.235c0-0.062,0.012-0.114,0.039-0.157
			c0.027-0.039,0.079-0.079,0.157-0.114c0.075-0.035,0.172-0.059,0.29-0.071c0.122-0.012,0.275-0.016,0.467-0.016
			c0.184,0,0.337,0.004,0.459,0.016c0.122,0.012,0.22,0.035,0.286,0.071c0.07,0.035,0.122,0.075,0.157,0.114
			c0.035,0.043,0.051,0.095,0.051,0.157L-386.369,922.098L-386.369,922.098z"/>
		<g id="XMLID_255_">
			<path id="XMLID_256_" fill="#AFC6D6" d="M-374.053,906.635c-0.035-0.051-0.087-0.087-0.157-0.114
				c-0.066-0.027-0.165-0.051-0.286-0.07c-0.122-0.019-0.279-0.027-0.471-0.027c-0.184,0-0.333,0.008-0.455,0.027
				c-0.118,0.019-0.216,0.043-0.29,0.07c-0.079,0.027-0.13,0.062-0.157,0.114c-0.027,0.051-0.039,0.102-0.039,0.157v6
				c-0.49-0.514-0.985-0.902-1.487-1.169c-0.502-0.263-1.055-0.397-1.66-0.397c-0.73,0-1.369,0.137-1.922,0.408
				c-0.557,0.271-1.024,0.659-1.397,1.165c-0.377,0.506-0.659,1.118-0.852,1.837c-0.192,0.714-0.286,1.518-0.286,2.409
				c0,0.749,0.079,1.463,0.232,2.142c0.153,0.679,0.397,1.268,0.726,1.769c0.333,0.502,0.769,0.902,1.307,1.196
				c0.534,0.294,1.181,0.443,1.938,0.443c0.699,0,1.338-0.165,1.926-0.494c0.585-0.329,1.15-0.789,1.695-1.381v1.377
				c0,0.059,0.016,0.114,0.043,0.161c0.031,0.047,0.083,0.083,0.149,0.11c0.071,0.027,0.157,0.047,0.267,0.062
				c0.106,0.016,0.24,0.023,0.4,0.023c0.153,0,0.283-0.008,0.393-0.023c0.106-0.016,0.192-0.035,0.259-0.062
				c0.062-0.027,0.11-0.062,0.137-0.11c0.027-0.047,0.039-0.098,0.039-0.161v-15.305
				C-374.002,906.737-374.018,906.686-374.053,906.635z M-375.909,918.951c-0.298,0.377-0.581,0.691-0.848,0.946
				c-0.267,0.259-0.526,0.467-0.769,0.627c-0.244,0.161-0.482,0.275-0.714,0.345c-0.236,0.067-0.478,0.102-0.73,0.102
				c-0.494,0-0.91-0.118-1.236-0.349c-0.329-0.236-0.592-0.546-0.793-0.934c-0.196-0.389-0.337-0.832-0.416-1.33
				c-0.083-0.498-0.122-1.008-0.122-1.531c0-0.49,0.047-0.973,0.145-1.448c0.095-0.474,0.248-0.902,0.455-1.275
				c0.212-0.377,0.482-0.679,0.82-0.91s0.745-0.345,1.228-0.345c0.518,0,1.016,0.169,1.495,0.502
				c0.478,0.333,0.973,0.82,1.483,1.459V918.951z"/>
		</g>
		<g id="XMLID_251_">
			<path id="XMLID_252_" fill="#AFC6D6" d="M-362.914,913.435c-0.145-0.482-0.377-0.887-0.699-1.212
				c-0.322-0.325-0.741-0.577-1.264-0.745c-0.522-0.169-1.154-0.251-1.895-0.251c-0.397,0-0.793,0.035-1.181,0.11
				c-0.393,0.075-0.753,0.169-1.079,0.279c-0.329,0.114-0.623,0.24-0.875,0.373c-0.251,0.137-0.432,0.255-0.534,0.353
				c-0.102,0.098-0.169,0.204-0.196,0.314c-0.027,0.11-0.039,0.263-0.039,0.451c0,0.118,0.008,0.22,0.023,0.318
				c0.016,0.095,0.039,0.172,0.075,0.232c0.035,0.062,0.075,0.11,0.122,0.137c0.043,0.031,0.098,0.047,0.161,0.047
				c0.091,0,0.232-0.055,0.416-0.169c0.188-0.114,0.424-0.236,0.702-0.373c0.279-0.137,0.604-0.259,0.977-0.373
				c0.369-0.114,0.789-0.169,1.256-0.169c0.436,0,0.805,0.051,1.103,0.157c0.298,0.102,0.542,0.255,0.73,0.459
				c0.188,0.204,0.321,0.459,0.408,0.765c0.083,0.31,0.126,0.663,0.126,1.059v0.809h-1.428c-0.805,0-1.531,0.071-2.174,0.212
				c-0.643,0.141-1.189,0.357-1.632,0.639c-0.447,0.283-0.789,0.639-1.024,1.071c-0.24,0.428-0.357,0.934-0.357,1.518
				c0,0.498,0.087,0.942,0.259,1.334c0.172,0.389,0.416,0.722,0.726,0.989c0.31,0.267,0.687,0.474,1.126,0.616
				c0.439,0.141,0.934,0.212,1.479,0.212c0.62,0,1.208-0.134,1.765-0.397c0.557-0.267,1.059-0.643,1.51-1.126v1.036
				c0,0.095,0.027,0.161,0.083,0.208c0.055,0.047,0.141,0.079,0.259,0.102c0.118,0.023,0.279,0.035,0.474,0.035
				c0.208,0,0.365-0.012,0.471-0.035c0.11-0.023,0.192-0.055,0.255-0.102c0.059-0.047,0.091-0.118,0.091-0.208v-6.984
				C-362.693,914.482-362.769,913.917-362.914,913.435z M-364.577,919.572c-0.467,0.522-0.914,0.91-1.338,1.161
				c-0.424,0.255-0.887,0.381-1.382,0.381c-0.616,0-1.091-0.161-1.432-0.478c-0.341-0.318-0.51-0.745-0.51-1.283
				c0-0.314,0.059-0.592,0.176-0.836c0.122-0.244,0.306-0.447,0.557-0.62c0.255-0.172,0.573-0.306,0.954-0.393
				c0.385-0.091,0.836-0.134,1.353-0.134h1.62v2.202H-364.577z"/>
		</g>
	</g>
	<g id="XMLID_115_">
		<g id="XMLID_244_">
			<path id="XMLID_246_" fill="#AFC6D6" d="M-305.411,916.757c-0.152-0.417-0.358-0.784-0.619-1.095
				c-0.265-0.312-0.573-0.569-0.92-0.772c-0.351-0.203-0.728-0.339-1.134-0.417c0.32-0.136,0.604-0.312,0.853-0.526
				c0.249-0.211,0.452-0.452,0.615-0.725c0.163-0.269,0.288-0.565,0.374-0.885c0.082-0.32,0.125-0.655,0.125-1.006
				c0-0.584-0.094-1.111-0.284-1.575c-0.191-0.464-0.475-0.857-0.853-1.177c-0.378-0.32-0.849-0.565-1.41-0.732
				c-0.565-0.167-1.29-0.249-2.175-0.249h-3.359c-0.175,0-0.343,0.059-0.499,0.176c-0.156,0.121-0.234,0.328-0.234,0.623v13.18
				c0,0.296,0.078,0.502,0.234,0.623c0.155,0.117,0.324,0.175,0.499,0.175h3.862c0.557,0,1.048-0.039,1.481-0.121
				c0.429-0.078,0.834-0.199,1.212-0.358c0.378-0.159,0.717-0.358,1.017-0.592c0.3-0.238,0.557-0.51,0.772-0.822
				c0.214-0.316,0.378-0.667,0.499-1.06c0.117-0.389,0.176-0.818,0.176-1.282C-305.181,917.637-305.26,917.178-305.411,916.757z
				 M-312.968,909.189h2.031c0.565,0,1.017,0.055,1.36,0.159c0.343,0.109,0.619,0.261,0.834,0.464
				c0.214,0.203,0.37,0.448,0.468,0.736c0.098,0.292,0.148,0.615,0.148,0.974c0,0.32-0.046,0.631-0.144,0.931
				c-0.094,0.3-0.245,0.565-0.448,0.791c-0.207,0.222-0.464,0.401-0.776,0.538c-0.316,0.132-0.725,0.199-1.236,0.199h-2.237V909.189
				L-312.968,909.189z M-307.457,919.345c-0.144,0.312-0.343,0.573-0.596,0.784c-0.257,0.211-0.55,0.37-0.885,0.475
				s-0.728,0.159-1.177,0.159h-2.853v-5.214h2.35c0.615,0,1.13,0.058,1.535,0.175c0.409,0.121,0.744,0.292,1.017,0.522
				c0.269,0.23,0.475,0.51,0.615,0.845s0.211,0.725,0.211,1.165C-307.239,918.67-307.314,919.033-307.457,919.345z"/>
		</g>
		<g id="XMLID_239_">
			<path id="XMLID_240_" fill="#AFC6D6" d="M-295.001,913.487c-0.144-0.479-0.374-0.881-0.694-1.204s-0.736-0.573-1.255-0.74
				s-1.146-0.249-1.882-0.249c-0.393,0-0.788,0.035-1.173,0.109c-0.389,0.074-0.748,0.167-1.071,0.276
				c-0.328,0.113-0.619,0.238-0.869,0.37c-0.249,0.136-0.429,0.253-0.53,0.351c-0.101,0.098-0.167,0.203-0.195,0.312
				c-0.027,0.109-0.039,0.261-0.039,0.448c0,0.117,0.008,0.218,0.023,0.316c0.015,0.094,0.039,0.172,0.074,0.23
				c0.035,0.062,0.075,0.109,0.121,0.136c0.042,0.031,0.098,0.046,0.159,0.046c0.09,0,0.23-0.054,0.413-0.167
				c0.187-0.113,0.421-0.234,0.698-0.37c0.276-0.136,0.6-0.257,0.97-0.37c0.366-0.113,0.784-0.167,1.247-0.167
				c0.433,0,0.799,0.051,1.095,0.155c0.296,0.101,0.538,0.253,0.725,0.456c0.187,0.203,0.32,0.456,0.405,0.76
				c0.082,0.308,0.125,0.659,0.125,1.052v0.803h-1.418c-0.799,0-1.519,0.07-2.159,0.211c-0.639,0.14-1.18,0.355-1.621,0.635
				c-0.444,0.28-0.783,0.635-1.017,1.064c-0.238,0.425-0.355,0.927-0.355,1.508c0,0.495,0.086,0.935,0.257,1.325
				c0.171,0.385,0.413,0.717,0.721,0.982c0.308,0.265,0.682,0.471,1.119,0.612c0.437,0.14,0.927,0.211,1.469,0.211
				c0.615,0,1.2-0.132,1.754-0.393c0.554-0.265,1.052-0.639,1.5-1.119v1.029c0,0.094,0.027,0.159,0.082,0.207
				c0.055,0.046,0.14,0.078,0.257,0.101c0.117,0.023,0.276,0.035,0.472,0.035c0.207,0,0.362-0.012,0.468-0.035
				c0.109-0.023,0.191-0.055,0.253-0.101c0.059-0.047,0.09-0.117,0.09-0.207v-6.937
				C-294.783,914.528-294.857,913.966-295.001,913.487z M-296.653,919.582c-0.464,0.518-0.908,0.904-1.329,1.154
				c-0.421,0.253-0.881,0.378-1.372,0.378c-0.612,0-1.083-0.159-1.422-0.475c-0.339-0.316-0.506-0.74-0.506-1.274
				c0-0.312,0.059-0.588,0.176-0.83c0.121-0.242,0.304-0.444,0.554-0.615c0.253-0.171,0.569-0.304,0.947-0.389
				c0.382-0.09,0.83-0.132,1.345-0.132h1.61v2.184H-296.653z"/>
		</g>
		<path id="XMLID_238_" fill="#AFC6D6" d="M-282.383,922.092c0,0.062-0.015,0.113-0.046,0.155c-0.031,0.039-0.078,0.078-0.148,0.109
			c-0.071,0.027-0.163,0.05-0.288,0.067c-0.121,0.015-0.272,0.023-0.456,0.023c-0.195,0-0.351-0.008-0.471-0.023
			c-0.125-0.015-0.218-0.039-0.288-0.067c-0.07-0.031-0.117-0.07-0.148-0.109c-0.031-0.042-0.046-0.094-0.046-0.155v-6.021
			c0-0.584-0.046-1.06-0.136-1.414c-0.09-0.358-0.222-0.667-0.397-0.927c-0.176-0.257-0.397-0.456-0.674-0.592
			s-0.596-0.207-0.958-0.207c-0.472,0-0.939,0.167-1.407,0.502c-0.471,0.335-0.962,0.826-1.477,1.473v7.186
			c0,0.062-0.015,0.113-0.046,0.155c-0.031,0.039-0.078,0.078-0.148,0.109c-0.071,0.027-0.163,0.05-0.288,0.067
			c-0.121,0.015-0.276,0.023-0.468,0.023c-0.187,0-0.339-0.008-0.46-0.023c-0.125-0.015-0.222-0.039-0.292-0.067
			c-0.074-0.031-0.125-0.07-0.152-0.109c-0.027-0.042-0.039-0.094-0.039-0.155v-10.28c0-0.062,0.012-0.113,0.035-0.156
			c0.023-0.039,0.066-0.078,0.136-0.113c0.07-0.035,0.156-0.058,0.265-0.07c0.105-0.012,0.249-0.015,0.425-0.015
			c0.167,0,0.308,0.004,0.417,0.015c0.113,0.012,0.199,0.035,0.261,0.07c0.058,0.035,0.105,0.074,0.132,0.113
			c0.023,0.043,0.039,0.094,0.039,0.156v1.36c0.577-0.651,1.15-1.126,1.726-1.426c0.573-0.3,1.15-0.452,1.734-0.452
			c0.682,0,1.259,0.117,1.726,0.347c0.468,0.234,0.845,0.546,1.134,0.931c0.288,0.389,0.495,0.845,0.619,1.368
			c0.125,0.522,0.187,1.15,0.187,1.878v6.274H-282.383z"/>
		<path id="XMLID_237_" fill="#AFC6D6" d="M-270.288,922.081c0,0.062-0.016,0.117-0.046,0.159c-0.031,0.047-0.082,0.086-0.152,0.117
			c-0.074,0.027-0.176,0.05-0.304,0.067c-0.129,0.015-0.292,0.023-0.491,0.023c-0.203,0-0.374-0.004-0.506-0.015
			c-0.132-0.012-0.245-0.031-0.335-0.058c-0.094-0.027-0.167-0.067-0.222-0.113c-0.059-0.051-0.109-0.109-0.155-0.18l-4.334-5.689
			v5.701c0,0.062-0.015,0.113-0.046,0.155c-0.031,0.039-0.078,0.078-0.148,0.109c-0.07,0.027-0.163,0.05-0.288,0.067
			c-0.121,0.015-0.276,0.023-0.468,0.023c-0.187,0-0.339-0.008-0.46-0.023c-0.125-0.015-0.222-0.039-0.293-0.067
			c-0.074-0.031-0.125-0.07-0.152-0.109c-0.027-0.042-0.039-0.094-0.039-0.155v-15.249c0-0.062,0.012-0.117,0.039-0.159
			c0.027-0.046,0.078-0.086,0.152-0.117c0.071-0.027,0.167-0.051,0.293-0.067c0.121-0.016,0.272-0.023,0.46-0.023
			c0.191,0,0.347,0.008,0.468,0.023c0.125,0.015,0.218,0.039,0.288,0.067c0.071,0.031,0.117,0.07,0.148,0.117
			c0.031,0.042,0.046,0.098,0.046,0.159v9.287l3.87-4.271c0.062-0.078,0.128-0.14,0.195-0.191c0.07-0.046,0.152-0.09,0.245-0.125
			c0.094-0.035,0.207-0.058,0.335-0.07c0.128-0.012,0.284-0.015,0.468-0.015c0.191,0,0.351,0.004,0.479,0.015
			c0.129,0.012,0.234,0.031,0.312,0.058c0.078,0.027,0.136,0.062,0.171,0.101c0.035,0.043,0.05,0.098,0.05,0.167
			c0,0.09-0.023,0.183-0.074,0.272c-0.051,0.094-0.129,0.199-0.245,0.32l-3.702,3.725l4.17,5.425
			c0.098,0.132,0.167,0.234,0.211,0.316C-270.308,921.94-270.288,922.014-270.288,922.081L-270.288,922.081z"/>
	</g>
</g>
</svg>
