<?xml version="1.0" encoding="utf-8"?>
<!-- Generator: Adobe Illustrator 19.0.0, SVG Export Plug-In . SVG Version: 6.00 Build 0)  -->
<svg version="1.1" id="Layer_1" xmlns="http://www.w3.org/2000/svg" xmlns:xlink="http://www.w3.org/1999/xlink" x="0px" y="0px"
	 viewBox="-191.042 567.707 106.3 41.108" enable-background="new -191.042 567.707 106.3 41.108" xml:space="preserve">
<g id="XMLID_827_">
	<path id="XMLID_1035_" fill="#AFC6D6" d="M-179.642,569.207c-0.4,0-1,0.4-1.5,0.6c-0.9,0.5-1.8,1-2.4,1.7c-1,1.1-1.4,3-1.7,4
		c0,0.2,0.4-0.2,1.1-0.9c0.6-0.6,1.4-1.3,2.1-2.2C-181.042,570.907-180.642,570.407-179.642,569.207L-179.642,569.207z"/>
	<path id="XMLID_1034_" fill="#AFC6D6" d="M-184.142,571.507c-0.5,0.2-1,1-1.4,2c-0.1,0.4-0.2,1-0.4,1.4c-0.1,0.5-0.2,1.1-0.3,1.6
		c-0.2,0.7-0.4,1.3-0.6,1.9c-0.1,0.3,0.2-0.7,1.2-1.8c0.3-0.4,0.8-0.8,1.3-1.1c0.3-0.2,0.6-0.4,0.9-0.6c0.4-0.5,1-0.9,1.4-1.4
		c0.3-0.3,0.3-0.7,0.3-0.6c0,0.3,0,0.9-0.2,1.4c-0.2,0.5-0.5,0.9-0.7,1.2c-0.4,0.7-0.7,1-1.2,1.4c-0.9,0.7-1.6,1.4-1.9,1.6
		c-0.6,0.4-1.1,1.2-1.4,1.6c-0.2,0.2-0.2,0.5-0.2,0.3c0-0.7-0.2-1.7-0.1-3.5c0-1,0.2-2.1,0.5-2.9c0.2-0.5,0.4-0.8,0.8-1.3
		C-185.542,572.107-184.842,571.607-184.142,571.507L-184.142,571.507z"/>
	<path id="XMLID_1032_" fill="#AFC6D6" d="M-187.942,574.807c0,0.2-0.3,0.7-0.4,1.4c-0.1,0.6-0.1,1.3,0,1.8c0,0.8,0.3,1.6,0.3,2.4
		c0.1,1.2,0,2.2-0.1,3.2c0,0,0.2-1,0.7-2c0.3-0.6,0.7-1.1,1.1-1.6c0.9-0.8,1.8-1.8,2.3-2.2c0,0-0.1,1.3-0.7,2.5
		c-0.5,1.1-1.5,2.2-1.6,2.2c-0.2,0.2-0.5,0.7-0.8,1.2c-0.3,0.5-0.6,0.9-0.8,1.4c-0.3,0.7-0.3,1.2-0.4,1.2c-0.3-0.7-0.3-1.4-0.5-2.1
		c-0.1-0.8-0.5-1.5-0.7-2.5c-0.1-0.6-0.3-1.2-0.2-1.8c0-0.8,0.1-1.7,0.4-2.3C-189.242,577.107-188.342,575.007-187.942,574.807
		L-187.942,574.807z"/>
	<path id="XMLID_1031_" fill="#AFC6D6" d="M-185.342,582.107c0,0.4,0.1,0.8,0.1,1.1c-0.1,1.7-0.5,3.1-0.9,4.3
		c-0.3,1-0.8,1.9-0.8,3.3c0,1.2,0.1,2,0,1.8c-0.1-0.2-0.6-1-1.3-1.8c-1.1-1.3-1.8-2.1-2.3-3.8c-0.4-1.3-0.5-2.6-0.3-3.9
		c0.1-0.8,0.3-1.5,0.6-2.2c0.1-0.2-0.2,0.6,0,1.7c0.1,0.5,0.4,1,0.5,1.6c0.2,0.8,0.7,1.4,1,2.2s0.4,1.8,0.6,2.4
		c0.3,1,0.4,1.6,0.4,1.5c0-0.5-0.2-1-0.2-1.5c0-0.9,0.1-1.7,0.6-2.9c0.3-0.7,0.7-1.1,1-1.8
		C-185.842,583.507-185.342,582.907-185.342,582.107L-185.342,582.107z"/>
	<path id="XMLID_1030_" fill="#AFC6D6" d="M-190.842,588.307c0.2,0.6,0.4,1.5,1.1,2.4c0.8,1.1,2.2,2.2,3,3.2c0.4,0.5,0.7,1,0.9,1.4
		c0.3,0.4,0.6,0.6,0.7,0.8c0.2,0.3-0.9-1.2-1-2.9c-0.1-1.3,0.4-3,0.4-3.6c0.1-1.1,0.1-2,0.3-1.6c0,0.2,0.4,1,0.6,2.1
		c0.2,1.2,0.4,2.8,0.4,3.2c0,1.2,0.1,2.3,0.4,3.4c0.2,0.6,0.5,1.2,0.7,1.7c0.2,0.4-4.2-2.5-5.3-3.6c-1.1-1.2-2.1-2.5-2.4-4.3
		C-191.042,589.707-190.842,589.007-190.842,588.307L-190.842,588.307z"/>
	<path id="XMLID_1029_" fill="#AFC6D6" d="M-183.942,592.507c0.4,0.4,0.7,0.9,1,1.3c0.5,0.6,0.9,1.2,1.2,1.8c0.5,1,0.8,2.2,1.3,3.5
		c0.2,0.6,0.6,1.4,1,1.9c0.5,0.6,1,1.1,0.9,1.2c0,0-0.2-0.2-0.9-0.3c-1.6-0.3-2.8-0.4-3.8-0.7c-1.3-0.4-2.4-1.1-4-2.6
		c-1.4-1.3-2.2-3.9-2.1-3.9c0.2,0.1,0.7,1.2,2.1,2.3c0.5,0.4,1.2,0.6,1.9,1c0.9,0.5,1.7,0.9,2.5,1.4c0.5,0.3,0.9,0.7,1.4,1
		s0.9,0.5,0.9,0.5c0.3,0.4-0.9-0.6-1.6-1.8c-0.3-0.4-0.6-1-0.8-1.6c-0.3-1-0.3-2.1-0.5-3.1
		C-183.542,593.807-183.742,593.207-183.942,592.507L-183.942,592.507z"/>
	<path id="XMLID_1028_" fill="#AFC6D6" d="M-180.442,597.707c0.7,0.5,1.6,1.3,2.6,2.2c0.5,0.5,0.9,1,1.5,1.5c0.5,0.4,1,0.8,1.5,1.1
		c0.8,0.6,1.6,0.7,2.3,0.8c0.1,0-0.2,0.1-0.9,0.3c-0.7,0.2-1.6,0.5-3,0.7c-0.9,0.1-1.8,0.3-2.8,0.3c-1.7-0.1-3.3-0.5-4.6-1.6
		c-1-0.8-1.5-1.7-1.8-2c0,0,1.3,1,3.2,1.5c1,0.3,2.2,0.2,3.4,0.3c0.4,0,0.9,0,1.3,0.1c0.8,0.1,1.5,0.3,2.2,0.3c0,0-1.6-0.4-2.6-1.4
		C-179.442,600.507-180.042,598.507-180.442,597.707L-180.442,597.707z"/>
	<path id="XMLID_1027_" fill="#AFC6D6" d="M-181.542,604.807c0.5,0.4,0.8,0.8,1.2,1.1c3.5,2.5,6.5,1,8.6-0.4c0.9-0.6,1.3-1,2-1.3
		c0.3-0.1,0.6-0.3,1.1-0.3c0.6-0.1,1.8,0.2,2.5,0.6c0.2,0.1,1.3,0.8,2.4,1.7s2.1,1.9,2.6,2.6c0.1,0.1,1.1-0.8,1.1-0.9
		c-0.8-0.6-1.4-1.3-2.2-1.9c-0.6-0.5-1.3-0.9-2-1.3c-0.8-0.5-1.4-0.7-2.1-0.9c-0.6-0.2-1.3-0.4-2.1-0.5c-1.2-0.1-2.4-0.2-3.6,0.3
		l-4.5,1.9c-0.8-0.1-1.7,0.3-2.5,0.2C-179.642,605.607-180.542,605.307-181.542,604.807L-181.542,604.807z"/>
	<path id="XMLID_1026_" fill="#AFC6D6" d="M-153.342,569.207c0.4,0,1,0.4,1.5,0.6c0.9,0.4,1.7,0.9,2.4,1.6c1,1.1,1.4,3,1.7,4
		c0,0.2-0.4-0.2-1.1-0.9c-0.6-0.6-1.4-1.3-2.1-2.2C-151.942,570.907-152.342,570.407-153.342,569.207L-153.342,569.207z"/>
	<path id="XMLID_1025_" fill="#AFC6D6" d="M-148.842,571.507c0.5,0.2,1,1,1.4,2c0.1,0.4,0.2,1,0.4,1.4c0.1,0.5,0.1,1.1,0.3,1.6
		c0.2,0.7,0.4,1.3,0.6,1.9c0.1,0.3-0.2-0.7-1.1-1.7c-0.3-0.4-0.8-0.8-1.3-1.1c-0.3-0.2-0.6-0.4-0.9-0.6c-0.4-0.5-1-0.9-1.4-1.4
		c-0.3-0.3-0.3-0.7-0.3-0.6c0,0.3,0,0.9,0.2,1.4c0.2,0.4,0.5,0.8,0.6,1.1c0.4,0.7,0.7,1,1.2,1.4c0.9,0.7,1.6,1.4,1.9,1.6
		c0.6,0.4,1.1,1.2,1.4,1.6c0.2,0.2,0.2,0.5,0.2,0.3c0-0.7,0.2-1.7,0.1-3.5c0-1-0.2-2.1-0.5-2.9c-0.2-0.5-0.5-0.8-0.9-1.3
		C-147.442,572.107-148.142,571.607-148.842,571.507L-148.842,571.507z"/>
	<path id="XMLID_1024_" fill="#AFC6D6" d="M-145.142,574.807c0.1,0.2,0.3,0.7,0.4,1.4c0.1,0.6,0.1,1.3,0,1.8c0,0.8-0.3,1.6-0.3,2.4
		c-0.1,1.2,0,2.2,0.1,3.2c0,0-0.2-1-0.7-2c-0.3-0.6-0.7-1.1-1.1-1.6c-0.9-0.8-1.8-1.8-2.3-2.2c0,0,0.1,1.3,0.7,2.5
		c0.5,1.1,1.5,2.2,1.6,2.2c0.2,0.2,0.5,0.7,0.8,1.2c0.3,0.5,0.6,0.9,0.8,1.4c0.3,0.7,0.3,1.2,0.4,1.2c0.3-0.7,0.3-1.4,0.5-2.1
		c0.3-0.8,0.7-1.6,0.9-2.6c0.1-0.6,0.3-1.2,0.2-1.8c0-0.8-0.1-1.7-0.4-2.3C-143.742,577.107-144.742,575.007-145.142,574.807
		L-145.142,574.807z"/>
	<path id="XMLID_1022_" fill="#AFC6D6" d="M-147.642,582.107c0,0.4-0.1,0.8-0.1,1.1c0.1,1.7,0.5,3.1,0.9,4.3c0.3,1,0.8,1.9,0.8,3.3
		c0,1.2-0.1,2,0,1.8c0.1-0.2,0.6-1,1.3-1.8c1.1-1.3,1.8-2.1,2.3-3.8c0.4-1.3,0.5-2.6,0.3-3.9c-0.1-0.8-0.3-1.5-0.6-2.2
		c-0.1-0.2,0.2,0.6,0,1.7c-0.1,0.5-0.4,1-0.5,1.6c-0.2,0.8-0.7,1.4-1,2.2s-0.4,1.8-0.6,2.4c-0.3,1-0.4,1.6-0.4,1.5
		c0-0.5,0.2-1,0.2-1.5c0-0.9-0.1-1.7-0.6-2.9c-0.3-0.7-0.7-1.1-1-1.8C-147.142,583.507-147.642,582.907-147.642,582.107
		L-147.642,582.107z"/>
	<path id="XMLID_1016_" fill="#AFC6D6" d="M-142.142,588.307c-0.2,0.6-0.4,1.5-1.1,2.4c-0.8,1.1-2.2,2.2-3,3.2
		c-0.4,0.5-0.7,1-0.9,1.4c-0.3,0.4-0.6,0.6-0.7,0.8c-0.2,0.3,0.9-1.2,1-2.9c0.1-1.3-0.4-3-0.4-3.6c0-1.1-0.1-2-0.3-1.6
		c0,0.2-0.4,1-0.6,2.1c-0.2,1.2-0.4,2.8-0.4,3.2c0,1.2-0.1,2.3-0.4,3.4c-0.2,0.6-0.5,1.2-0.7,1.7c-0.2,0.4,4.2-2.5,5.3-3.6
		c1.1-1.2,2.1-2.5,2.4-4.3C-142.042,589.707-142.142,589.007-142.142,588.307L-142.142,588.307z"/>
	<path id="XMLID_1015_" fill="#AFC6D6" d="M-149.042,592.507c-0.4,0.4-0.7,0.9-1,1.3c-0.5,0.6-0.9,1.2-1.2,1.8
		c-0.5,1-0.8,2.2-1.3,3.5c-0.2,0.6-0.6,1.4-0.9,1.9c-0.5,0.6-1,1.1-0.9,1.2c0,0,0.2-0.2,0.9-0.3c1.6-0.3,2.8-0.4,3.8-0.7
		c1.3-0.4,2.4-1.1,4-2.6c1.4-1.3,2.2-3.9,2.1-3.9c-0.2,0.1-0.7,1.2-2.1,2.3c-0.5,0.4-1.2,0.6-1.9,1c-0.9,0.5-1.7,0.9-2.5,1.4
		c-0.5,0.3-0.9,0.7-1.4,1s-0.9,0.5-0.9,0.5c-0.3,0.4,0.9-0.6,1.6-1.8c0.3-0.4,0.6-1,0.8-1.6c0.3-1,0.3-2.1,0.5-3.1
		C-149.542,593.807-149.242,593.207-149.042,592.507L-149.042,592.507z"/>
	<path id="XMLID_1013_" fill="#AFC6D6" d="M-152.642,597.707c-0.7,0.5-1.6,1.3-2.6,2.2c-0.5,0.5-0.9,1-1.5,1.5
		c-0.5,0.4-1,0.8-1.5,1.1c-0.8,0.6-1.6,0.7-2.3,0.8c-0.1,0,0.2,0.1,0.9,0.3c0.7,0.2,1.6,0.5,3,0.7c0.9,0.1,1.8,0.3,2.8,0.3
		c1.7-0.1,3.3-0.5,4.6-1.6c1-0.8,1.5-1.7,1.8-2c0,0-1.3,1-3.2,1.5c-1,0.3-2.2,0.2-3.4,0.3c-0.4,0-0.9,0-1.3,0.1
		c-0.8,0.1-1.5,0.3-2.2,0.3c0,0,1.6-0.4,2.6-1.4C-153.642,600.507-153.042,598.507-152.642,597.707L-152.642,597.707z"/>
	<path id="XMLID_1012_" fill="#AFC6D6" d="M-151.442,604.807c-0.5,0.4-0.8,0.8-1.2,1.1c-3.5,2.5-6.5,1-8.6-0.4c-0.9-0.6-1.3-1-2-1.3
		c-0.3-0.1-0.6-0.3-1.1-0.3c-0.6-0.1-1.8,0.2-2.5,0.6c-0.2,0.1-1.3,0.8-2.4,1.7c-1.1,0.9-2.1,1.9-2.6,2.6c-0.1,0.1-1.1-0.8-1.1-0.9
		c0.8-0.6,1.4-1.3,2.2-1.9c0.6-0.5,1.3-0.9,2-1.3c0.8-0.5,1.4-0.7,2.1-0.9c0.6-0.2,1.3-0.4,2-0.5c1.2-0.1,2.4-0.2,3.6,0.3l4.5,1.9
		c0.8-0.1,1.7,0.3,2.5,0.2C-153.342,605.607-152.442,605.307-151.442,604.807L-151.442,604.807z"/>
	<g id="XMLID_925_">
		<path id="XMLID_1011_" fill="#AFC6D6" d="M-160.842,569.907c-0.6-0.2-0.8-0.2-1.5-0.1c-0.4,0-0.5,0.4-0.9,0.4
			c-0.2,0-0.3,0.4-0.1,0.5c0.4,0.3,1.3,0.1,1.2-0.1c0.3,0,1,0.1,1.2,0C-160.342,570.307-160.142,570.107-160.842,569.907z"/>
		<path id="XMLID_996_" fill="#AFC6D6" d="M-157.542,572.707c0-0.1-0.1-0.4,0-0.6c0-0.1-0.1-0.2-0.4-0.2c-0.1,0-0.1-0.1-0.3-0.1
			c-0.3,0-0.3,0.2-0.2,0.4C-158.142,572.407-157.642,572.807-157.542,572.707z"/>
		<path id="XMLID_985_" fill="#AFC6D6" d="M-165.542,587.407c0,0-0.3-0.3-0.2-0.3c0.1,0,0.7,0.1,0.8,0c0.2-0.1,0.1-0.4,0.3-0.7
			c0.1-0.2,0.3-0.5,0.3-0.7c0-0.3-0.1-0.4-0.3-0.5s-0.8-0.2-1,0c-0.1,0.1,0,0.3,0,0.4c0,0.2-0.3,0.5-0.5,0.7c-0.1,0.1-0.3,0-0.3,0.1
			C-166.742,587.107-165.142,588.307-165.542,587.407z"/>
		<path id="XMLID_926_" fill="#AFC6D6" d="M-166.242,567.707c-9.5,0-17.2,7.7-17.2,17.2s7.7,17.2,17.2,17.2s17.2-7.7,17.2-17.2
			S-156.742,567.707-166.242,567.707z M-166.242,568.007c4.6,0,8.8,1.9,11.8,4.9l-2,2c-0.3-0.5-0.5-0.9-0.7-1.3
			c-0.1-0.2-0.2-0.2-0.3-0.3c-0.2-0.3-0.4-0.5-0.7-0.6c-0.1,0-0.1-0.1-0.3-0.2c-0.1,0-0.2-0.1-0.4-0.2c-0.2,0-0.6,0.1-0.9,0.1
			c-0.1,0-0.3,0-0.3,0.1l0.1,0.2c-1.9-1-4-1.5-6.3-1.6V568.007L-166.242,568.007z M-179.642,585.307h3.5c0,0.5,0.1,1.1,0.2,1.6l0,0
			c-0.2,0.4-0.3,1.3-0.4,1.7c0,0.1-0.6-0.1-1.2-0.1c-0.1,0-0.2-0.4-0.2-0.4c-0.3,0.1-0.2,0.2-0.5,0.3c-0.3,0.2-0.6-0.2-0.8,0
			C-179.442,587.507-179.642,586.407-179.642,585.307z M-167.842,585.007c0-0.2,0-0.2,0.2-0.3v-0.1c0.2-0.1,0.1,0,0.2,0
			c0.1,0.1,0.3-0.1,0.4,0.1c0.1,0.2,0,0.4,0.2,0.4c0,0,0.3,0,0.3,0.1c0.1,0.1,0,0.2-0.1,0.3c-0.1,0.2-0.2,0-0.2-0.1
			c0,0-0.3-0.1-0.3,0c0,0.2-0.3,0.1-0.5,0.1c-0.1,0-0.1,0.1-0.2,0c0-0.1-0.3-0.1-0.5,0.1c-0.1,0.1,0.1-0.2,0.1-0.2s0,0,0-0.1
			c0.1-0.1,0.2-0.1,0.2-0.2C-167.842,585.107-167.842,585.007-167.842,585.007z M-166.542,581.307c-0.1,0-0.2-0.1-0.2-0.1
			c-0.2,0.1-0.3-0.2-0.4-0.2c-0.3,0.1-0.1,0.2-0.2,0.2c-0.2,0-0.1-0.3-0.1-0.4c0-0.1-0.2-0.2-0.3-0.2c-0.6-0.2-0.4-0.1-1-0.4
			c-0.1-0.1-0.4-0.2-0.5-0.1c-0.2,0.1-0.3,0.4-0.6,0.6c-0.2,0.1-0.3,0.1-0.5,0.2l-0.6-0.6c1.1-1.2,2.7-1.9,4.5-2L-166.542,581.307
			L-166.542,581.307z M-171.442,580.307c-1.1,1.2-1.7,2.8-1.7,4.6v0.1h-2.6v-0.1c0-2.5,1-4.7,2.5-6.4L-171.442,580.307z
			 M-173.142,578.207c1.7-1.7,4-2.8,6.6-2.9v2.6c-1.8,0.1-3.5,0.9-4.7,2.1L-173.142,578.207z M-175.842,585.307h2.6v0.1
			c-0.1,0.1-0.1,0.2-0.1,0.3c-0.1,0.3,0,0.5,0,0.8v0.1c0,0.2,0,0.5-0.1,0.5c-0.4,0-1-0.9-1.4-0.9c-0.2,0-0.6,0.2-0.8,0.4
			C-175.742,586.207-175.842,585.807-175.842,585.307z M-173.142,586.107L-173.142,586.107L-173.142,586.107L-173.142,586.107z
			 M-172.842,584.507c0-0.5,0.1-1,0.3-1.5c-0.1,0.3-0.1,0.6-0.1,0.9C-172.742,584.207-172.842,584.407-172.842,584.507z
			 M-170.942,585.007h-1.3c0.1-0.4,0.2-0.9,0.4-1c0.2-0.1,0.6,0,0.7,0C-170.842,584.207-170.942,584.607-170.942,585.007z
			 M-170.842,581.507c-0.3,0.3-0.6,0-0.6,0.4c0,0.1-0.1,0.3-0.2,0.3c-0.2,0.1-0.2-0.1-0.4,0c-0.1,0.1-0.2,0.3-0.3,0.3
			c-0.1,0.1-0.2,0.2-0.2,0.4c0.3-0.9,0.7-1.8,1.4-2.5l0.6,0.6C-170.742,581.307-170.742,581.407-170.842,581.507z M-166.542,575.007
			c-2.7,0.1-5.1,1.2-6.8,3l-2.5-2.5c2.4-2.4,5.7-3.9,9.3-4V575.007L-166.542,575.007z M-173.542,578.207c-1.6,1.8-2.6,4.1-2.6,6.7
			v0.1h-3.5v-0.1c0-3.5,1.4-6.7,3.6-9.1L-173.542,578.207z M-177.942,591.207c0.1,0.1,0.2,0.2,0.4,0.3c0.2,0.2,0.5,0.2,0.7,0.4
			c0.2,0.1-0.1,0.3,0.1,0.4c0.2,0.1,0.3,0.3,0.6,0.4c0.1,0.1,0.1-0.2,0.3-0.1c0.2,0.1,0.1,0.3,0.3,0.4c0.1,0.1,0.2,0.3,0.3,0.3
			s0.2,0.1,0.3,0.3l-0.8,0.8c-0.9-0.9-1.7-2-2.3-3.1C-178.042,591.207-177.942,591.207-177.942,591.207z M-171.942,590.107
			c-0.1-0.3,0.1-0.9-0.1-1.2c0,0,0-0.1-0.1-0.2c0.2,0.4,0.5,0.7,0.8,1l-0.6,0.6C-171.842,590.307-171.842,590.207-171.942,590.107z
			 M-172.242,587.707c0-0.1-0.1-0.2-0.1-0.3c-0.2-0.5-0.3-1-0.4-1.5c0.2,0,0.3,0,0.4,0c0.2,0.1,0-0.2,0.1-0.4c0,0,0-0.1,0-0.2h1.3
			c0,0.1,0,0.1,0,0.2c0,0.3-0.2,0.3-0.4,0.3c0-0.1-0.2-0.3-0.4-0.2c-0.1,0.1,0,0.2,0,0.4c0,0.1-0.1,0.3,0.1,0.4
			c0.1,0-0.6,0.1-0.5,0.1c0.2,0.1,0.1,0.5,0.5,0.5c0.1,0,0.2-0.3,0.2-0.5c0.1-0.2-0.1-0.3,0.1-0.3c0.2,0,0,0,0.2,0
			c0.1,0,0.3,0,0.4,0c0.4,0.1,0.9,0.1,1.3,0.2c0.1,0,0.1,0.2,0.1,0.2c0.1,0.1,0.2,0.1,0.4,0.1c0.2-0.1,0.1,0.2,0.2,0.4
			c0,0,0,0.1,0.1,0.2l-2.3,2.2C-171.542,589.007-171.942,588.407-172.242,587.707z M-168.642,587.407c0,0,0.1,0,0.2,0
			c0.1,0-0.2-0.3,0.1-0.4c0.1,0,0.1,0.7,0.4,0.7c0.5,0,0.4-0.4,0.5-0.6c0-0.2,0.4,0.1,0.6,0c0.4-0.2,0.3-0.4,0.3-0.9
			c0-0.1,0.2,0.2,0.3,0c0.1-0.1,0.1-0.4,0.2-0.6c0.1-0.2,0.3-0.3,0.3-0.4c0-0.2-0.4-0.2-0.5-0.3c-0.1-0.1,0-0.3,0-0.5
			c0-0.3,0-0.6,0.3-0.8c0.3-0.2,0.6-0.7,0.9-0.7c0.2,0,0.4,0.1,0.5-0.2c0.2-0.3-0.1-0.5,0-0.9c0-0.3,0.2,0.4,0.4,0.6
			c0.3,0.3,0.6,0.3,0.6,0.3s0.1-0.1,0.2-0.1l0,0l0,0h0.1c0.2,0.1,0.4,0.6,0.7,0.8c0.1,0,0.1,0.3,0.2,0.5c0,0.1-0.3,0.4-0.3,0.4
			c0,0.1,0.2,0.2,0.3,0.2c0.1,0,0.2,0.1,0.2,0.3h-0.4c0,0.1,0,0.2,0,0.3h0.5c0,0.3,0.1,0.5,0.1,0.4c0-0.1,0.2,0.5-0.1,0.7
			c-0.2,0.1-0.9,0.2-1,0.3c-0.6,0.4-0.4,0.7-0.3,0.7c0,0,0,0-0.1,0.1l-0.5,0.1c-0.1,0.1-0.2,0.1-0.3,0.2l0,0h-0.1
			c-0.3,0.1-1.2-0.1-1-0.1c0.2,0.1,0.7,0.6,0.7,1.3c0,0.5-0.1,0.9,0.2,1h0.1c-0.2,0-0.5,0.1-0.6,0.1c-0.1,0,0,0.2-0.1,0.2
			c-0.3,0.2-0.2,0.6-0.2,0.6s0,0.1,0,0.2c-0.2,0.1-0.3,0.3-0.5,0.4c-0.2,0-0.4,0-0.6,0v-3.2l0,0c-0.1,0-0.2,0-0.3,0v3.2
			c-1.6-0.1-3.1-0.7-4.2-1.7l2.3-2.3C-168.542,587.507-168.542,587.407-168.642,587.407z M-163.042,581.607l0.1-0.1
			L-163.042,581.607L-163.042,581.607z M-164.742,591.307l-0.2-0.1c0.1,0,0.1,0,0.2-0.1c0.4-0.2,1.2-0.9,1.5-1
			c0.2,0,0.2,0.2,0.3,0.2c0.1,0,0.1,0.1,0.2,0.1c-0.6,0.4-1.2,0.7-1.9,0.8L-164.742,591.307z M-160.142,591.107
			C-160.142,591.107-160.242,591.107-160.142,591.107l-0.4-0.3c0.2,0,0.4-0.1,0.6-0.1c0.2,0,0.3,0.1,0.5,0.1
			c-0.1,0.1-0.1,0.2-0.2,0.4C-159.842,591.207-159.942,591.207-160.142,591.107z M-161.242,590.107c0.1,0,0.2-0.1,0.3-0.2
			c0.2-0.2,0.4,0,0.5,0.1c0.1,0.1-0.2,0.4-0.3,0.6L-161.242,590.107z M-162.042,590.407c0.1,0.1,0.2,0.1,0.2,0.1
			c0.1,0,0.1-0.3,0.2-0.3l0,0l0.6,0.6c-0.2,0-0.5,0.2-0.7,0.3c-0.2,0.2-0.3,0.4-0.6,0.5c-0.3,0-0.6-0.3-0.9-0.4
			C-162.742,590.907-162.342,590.707-162.042,590.407z M-158.942,591.107L-158.942,591.107c0,0-0.1-0.1-0.1-0.2h0.1l0,0
			C-158.842,591.007-158.942,591.007-158.942,591.107z M-157.742,588.607c-0.2-0.1-0.4,0.5-0.9,0.7c-0.2,0.1-0.5,0-0.7-0.1
			c-0.1,0,0.3,0,0.4,0c0.2-0.1,0.3-0.2,0.4-0.2c0.1,0,0.6-0.3,0.9-0.6c0.2-0.2,0.3-0.5,0.4-0.5l0,0c-0.1,0.3-0.2,0.6-0.3,0.9
			C-157.542,588.707-157.642,588.607-157.742,588.607z M-159.342,578.307c0.5,0.6,1,1.2,1.4,1.9c0,0.1-0.1,0.2-0.1,0.3
			c-0.2,0-0.4,0-0.6-0.1c-0.6-0.2-1.3-0.6-1.5-0.7c-0.1,0-0.5,0.4-0.5,0.7c0,0.1,0.2,0.2,0.3,0.2c-0.1,0-0.2,0.1-0.3,0.1
			c-0.2-0.2-0.3-0.4-0.5-0.6L-159.342,578.307z M-160.942,581.007c-0.2,0.1-0.3,0.2-0.5,0.4c-0.3,0.3-0.6,0.7-0.7,0.6
			c-0.3-0.1-0.4-0.3-0.5-0.4l1.1-1.1C-161.242,580.607-161.042,580.807-160.942,581.007z M-166.242,591.907c0.1,0,0.2,0,0.3,0
			c-0.1,0.1-0.2,0.1-0.3,0.1V591.907z M-165.742,594.307l0.1,0.1c-0.2,0-0.4,0-0.6,0v-0.6
			C-166.042,594.007-165.942,594.207-165.742,594.307z M-166.242,594.807c0.3,0,0.6,0,0.9,0l0.4,0.4c0.2,0.2,1,0.3,1.6,0.5
			c0.2,0,0.5,0,0.7,0c0.2,0,0.2,0.2,0.2,0.3l-0.2,0.4c-0.2,0.4,0.3,0.7,0.5,0.9c0.1,0.1,0.3,0.2,0.4,0.3c-1.4,0.5-2.9,0.8-4.5,0.8
			V594.807L-166.242,594.807z M-156.642,593.707c0.1-0.1-0.1-0.4-0.2-0.7c-0.1-0.2-0.1-0.4-0.2-0.6c-0.3-0.6-0.5-0.4-0.5-0.2v0.1
			c-0.4-0.1-0.8-0.4-1.1-0.6c0.1-0.2,0.6-0.4,0.5-0.4c-0.2,0-0.3-0.2-0.4-0.2l0.1-0.1c0.2,0.1,0.4,0.2,0.6,0.1
			c0.1,0,0.3-1.1,0.4-1.2c0.1-0.2,0.2-0.5,0.2-0.7c0.2-0.4,0.4-0.8,0.5-1.2l0,0c0.1,0,0.1-0.2,0.2-0.2c1.7-0.1,2.5-0.1,3-0.3
			c0.6-0.3-0.2-0.7-0.6-0.8c-0.1,0-0.4,0.3-0.4,0.4c0-0.1-0.3-0.4-0.6-0.8c-0.2-0.2-0.3-0.5-0.5-0.7c-0.1-0.1-0.2-0.1-0.2-0.2l0,0
			h3.1c-0.1,3.4-1.5,6.4-3.6,8.7l0,0C-156.442,593.907-156.542,593.807-156.642,593.707z M-155.842,585.007c0.2-0.2,0.5-0.5,0.4-0.8
			c-0.1-0.4-0.3-0.2-0.3-0.7s-0.1-0.6,0.2-0.7c0.4-0.1,0.3-0.4,0.4-0.6c0.1-0.1-0.3-0.4-0.7-0.5c-0.1,0-0.2,0-0.3,0.1
			c0-0.1,0-0.1,0-0.2c0-0.1,0.1-0.3,0.1-0.4c0-0.2-0.1-0.6-0.3-0.7c-0.1-0.1-0.3,0-0.3-0.2c-0.1-0.1,0.2-0.4,0.2-0.4
			c-0.1-0.2-0.3,0-0.4-0.2c0-0.1,0.2-0.2,0.2-0.4c0-0.1-0.2-0.1-0.3-0.1c-0.1-0.1-0.4,0.3-0.5,0.2c-0.1-0.1-0.1-0.3-0.2-0.5
			c-0.4-0.3-0.7-0.8-0.9-1.2l0.5-0.5c0.1,0.2,0.4,0.3,0.7,0.3c0.2,0,0.3,0.3,0.4,0.5c0.2,0.3,0.5,0.6,1,0.5c0.2,0,0.6,0.5,0.8,0.8
			c0.2,0.3,0.3,0.5,0.5,0.6c0.1,0,0.3-0.1,0.5,0c0.2,0.1,0.3,0.1,0.4,0.1c0.6,1.5,1,3.2,1,5v0.1L-155.842,585.007L-155.842,585.007z
			 M-166.242,571.507c2.3,0,4.4,0.6,6.3,1.6v1.1c0,0.3,0.4,0.3,0.5,0.4c0,0.1,0,0.2,0,0.2c0,0.2,0.1,0.4,0.1,0.6s-0.1,0.4,0,0.5
			c0,0,0.4-0.3,0.6-0.4c0.1,0,0.2,0.1,0.3,0.1c0.2,0,0.4,0.5,0.5,0.6c0,0.2-0.1,0.3-0.1,0.4l-0.6,0.6c-0.1-0.2-0.3-0.7-0.4-0.8
			c-0.1-0.1-0.1-0.2-0.1-0.3c-0.2-0.2-0.4-0.1-0.5-0.2c-0.1-0.1-0.3-0.3-0.4-0.4c-0.1-0.1-0.5-0.6-0.5-0.5l0.3,1.2
			c0.1,0.3,0,0.7,0,0.8l0,0c-1.7-1.3-3.8-2.1-6-2.1C-166.242,574.907-166.242,571.507-166.242,571.507z M-166.242,575.307
			c2.6,0,5,1.1,6.7,2.8l-1.8,1.8c-1.2-1.2-3-2-4.8-2v-2.6H-166.242z M-161.642,580.207l-0.3,0.3c0-0.1-0.1-0.2-0.2-0.2
			c-0.1-0.1,0.1-0.3-0.1-0.2c-0.3,0-0.8,0.6-0.9,0.6c-0.6-0.2-1.7-0.2-2-0.1c-0.2,0.1-0.2-0.3-0.3-0.3c-0.7,0.2-0.1,0.5-0.5,0.9
			c0,0-0.1,0.1-0.2,0.1v-3C-164.442,578.307-162.842,579.007-161.642,580.207z M-183.142,584.907c0-9.2,7.4-16.7,16.6-16.9v3.1
			c-3.7,0.1-7.1,1.6-9.5,4.1l-2.1-2.1l-0.2,0.2l2.1,2.1c-2.3,2.5-3.7,5.8-3.7,9.4v0.1H-183.142
			C-183.142,585.007-183.142,584.907-183.142,584.907z M-183.142,585.307h3.1c0,1.2,0.2,2.4,0.6,3.6c-0.1,0.2-0.1,0.4-0.1,0.6
			c0.1,0.4,0,0.8,0.4,1.1c0.2,0.2,0.2,0,0.5,0.2c0.7,1.4,1.5,2.6,2.6,3.7l-2.2,2.2
			C-181.142,593.807-183.042,589.807-183.142,585.307z M-166.542,601.707c-4.4,0-8.5-1.8-11.4-4.7l2.2-2.2c2.4,2.3,5.7,3.8,9.2,3.8
			V601.707L-166.542,601.707z M-166.542,598.307c-3.5-0.1-6.6-1.5-9-3.7l0.8-0.8c0.2,0.2,0.5,0.5,0.6,0.5c0.6,0.2,0.7-0.1,1.2-0.2
			c0.2,0,0.4,0.3,0.7,0.4c0.3,0,0.7-0.3,0.9-0.3c0.2,0,1,0,1.1-0.1c0.1-0.1,0.1-0.1,0.1-0.1c1.1,0.5,2.4,0.8,3.7,0.8v3.5H-166.542z
			 M-170.342,593.507v-0.1c-0.1-0.8-1.1-0.7-1.5-1.8c-0.1-0.2,0.5-0.4,0.4-0.6c-0.1-0.1-0.1-0.2-0.2-0.4l0.6-0.6
			c1.2,1.1,2.7,1.8,4.4,1.8v0.8c-0.2,0.2-0.2,0.2-0.2,0.4s0.1,0.3,0.2,0.5v1C-167.942,594.407-169.142,594.107-170.342,593.507z
			 M-166.242,601.807v-3.1c1.7,0,3.3-0.3,4.8-0.9c0.4,0.3,0.8,0.9,1.3,1.2c0.3,0.2,0.5,0.1,0.9,0c0.5-0.2,0.9-0.6,1.2-1
			c0.3-0.5,0.8-0.9,1-1.4c0.1-0.2,0.4-0.7,0.4-1.1c0-0.2-0.1-0.3-0.2-0.4l0.1-0.1l2.2,2.2
			C-157.642,600.007-161.742,601.707-166.242,601.807z M-154.442,596.907l-2.2-2.2c2.4-2.4,4-5.7,4.1-9.4h3v-0.3h-2.9v-0.1
			c0-1.8-0.4-3.5-1-5.1c0-0.1,0-0.2,0-0.4c-0.1-1-0.5-1.3-0.7-1.7c-0.4-0.6-0.7-1-1.5-1.9c-0.2-0.2-0.3-0.4-0.5-0.6l2-2
			c2.9,3,4.8,7.2,4.8,11.7C-149.342,589.607-151.342,593.807-154.442,596.907z"/>
	</g>
	<g id="XMLID_828_">
		<path id="XMLID_923_" fill="#AFC6D6" d="M-128.342,575.007v7.3c0,1.4-0.4,2.5-1.2,3.3c-0.8,0.7-1.9,1.1-3.3,1.1
			c-1.5,0-2.6-0.4-3.5-1.1c-0.8-0.7-1.2-1.8-1.2-3.3v-7.3h1.5v7.3c0,1,0.3,1.8,0.8,2.3c0.6,0.5,1.3,0.8,2.3,0.8s1.7-0.3,2.2-0.8
			s0.8-1.3,0.8-2.3v-7.3H-128.342L-128.342,575.007z"/>
		<path id="XMLID_916_" fill="#AFC6D6" d="M-126.142,586.407v-8.2h1.2v1.4c0.3-0.5,0.7-0.9,1.1-1.2c0.5-0.3,1-0.4,1.6-0.4
			c1.9,0,2.8,1,2.8,3v5.4h-1.4v-5.6c0-0.5-0.1-0.9-0.4-1.2c-0.3-0.3-0.7-0.4-1.2-0.4c-0.8,0-1.4,0.2-1.8,0.7s-0.6,1.1-0.6,1.9v4.6
			H-126.142z"/>
		<path id="XMLID_902_" fill="#AFC6D6" d="M-115.942,575.007v1.7h-1.4v-1.7H-115.942z M-117.242,586.407v-8.2h1.3v8.2H-117.242z"/>
		<path id="XMLID_901_" fill="#AFC6D6" d="M-111.942,575.707v2.5h1.6v1.2h-1.6v5.1c0,0.3,0.1,0.5,0.2,0.6c0.1,0.1,0.4,0.1,0.8,0.1
			h0.6v1.2h-1c-0.7,0-1.2-0.1-1.5-0.4c-0.3-0.2-0.4-0.7-0.4-1.4v-5.2h-1.4v-1.2h1.4v-2.5H-111.942L-111.942,575.707z"/>
		<path id="XMLID_897_" fill="#AFC6D6" d="M-103.142,583.807h1.3c-0.1,0.9-0.5,1.6-1.1,2.1s-1.4,0.7-2.3,0.7c-1.3,0-2.2-0.4-2.9-1.2
			c-0.7-0.8-1-1.8-1.1-3.2c0-1.2,0.4-2.3,1.1-3.1c0.7-0.8,1.7-1.2,2.8-1.2c0.9,0,1.7,0.2,2.2,0.7c0.6,0.5,1,1.1,1.2,1.8
			s0.3,1.4,0.3,2.2h-6.2c0,0.8,0.2,1.4,0.6,1.9s1.1,0.8,1.9,0.8C-104.042,585.407-103.342,584.907-103.142,583.807z
			 M-107.842,581.507h4.7c0-0.7-0.3-1.2-0.7-1.7c-0.4-0.4-1-0.7-1.7-0.7s-1.2,0.2-1.6,0.7S-107.742,580.807-107.842,581.507z"/>
		<path id="XMLID_891_" fill="#AFC6D6" d="M-92.842,575.007v11.4h-1.4v-1.1l0,0c-0.4,0.9-1.3,1.3-2.6,1.3c-0.6,0-1.1-0.1-1.6-0.3
			c-0.5-0.2-0.9-0.5-1.2-0.9c-0.3-0.4-0.6-0.9-0.7-1.4c-0.2-0.5-0.2-1.1-0.2-1.7c0-1.2,0.3-2.2,1-3.1c0.7-0.8,1.6-1.2,2.8-1.2
			c0.5,0,1,0.1,1.5,0.3c0.5,0.2,0.9,0.5,1.2,1l0,0v-4.3H-92.842L-92.842,575.007z M-99.242,582.407c0,0.8,0.2,1.5,0.7,2.1
			c0.4,0.6,1.1,0.9,1.9,0.9s1.5-0.3,1.9-0.9c0.4-0.6,0.6-1.3,0.6-2.2c0-0.9-0.2-1.6-0.6-2.2c-0.4-0.6-1.1-0.9-2-0.9
			s-1.5,0.3-1.9,0.9C-99.042,580.707-99.242,581.407-99.242,582.407z"/>
		<path id="XMLID_890_" fill="#AFC6D6" d="M-137.442,602.407v-11.3h1.6l6,9.2l0,0v-9.2h1.4v11.4h-1.7l-5.9-9.1l0,0v9.1h-1.4V602.407
			z"/>
		<path id="XMLID_865_" fill="#AFC6D6" d="M-118.942,601.407v1.1c-0.2,0.1-0.6,0.2-1,0.2c-0.8,0-1.1-0.4-1.1-1.3
			c-0.7,0.8-1.7,1.3-2.9,1.3c-0.8,0-1.4-0.2-2-0.6c-0.5-0.4-0.8-1-0.8-1.7c0-0.8,0.2-1.4,0.7-1.8c0.5-0.4,1.2-0.6,2-0.8
			c0.6-0.1,1.1-0.2,1.5-0.2c0.4-0.1,0.7-0.2,0.9-0.3c0.2-0.1,0.3-0.4,0.3-0.7c0-0.9-0.6-1.4-1.8-1.4c-1.3,0-2,0.5-2.1,1.6h-1.4
			c0-1,0.4-1.7,1-2.1s1.5-0.7,2.5-0.7c2.1,0,3.1,0.8,3.1,2.3v4.2c0,0.4,0,0.6,0.1,0.7c0,0.1,0.2,0.2,0.4,0.2
			C-119.142,601.407-119.042,601.407-118.942,601.407z M-121.042,599.607v-1.4c-0.1,0.1-0.4,0.2-0.6,0.3c-0.3,0.1-0.5,0.1-0.8,0.1
			s-0.6,0.1-1,0.1c-0.5,0.1-0.9,0.3-1.2,0.5c-0.3,0.2-0.4,0.6-0.4,1s0.2,0.7,0.5,0.9c0.3,0.2,0.7,0.3,1.1,0.3c0.6,0,1-0.1,1.4-0.3
			c0.4-0.2,0.7-0.4,0.8-0.7C-121.142,600.107-121.042,599.907-121.042,599.607z"/>
		<path id="XMLID_864_" fill="#AFC6D6" d="M-115.742,591.807v2.5h1.6v1.2h-1.6v5.1c0,0.3,0.1,0.5,0.2,0.6s0.4,0.1,0.8,0.1h0.6v1.2
			h-1c-0.7,0-1.2-0.1-1.5-0.4c-0.3-0.2-0.4-0.7-0.4-1.4v-5.2h-1.4v-1.2h1.4v-2.5C-117.042,591.807-115.742,591.807-115.742,591.807z
			"/>
		<path id="XMLID_836_" fill="#AFC6D6" d="M-111.142,591.107v1.6h-1.4v-1.7h1.4V591.107z M-112.542,602.407v-8.2h1.4v8.2H-112.542z"
			/>
		<path id="XMLID_831_" fill="#AFC6D6" d="M-109.542,598.307c0-1.3,0.4-2.3,1.1-3.1s1.7-1.2,2.9-1.2c1.3,0,2.2,0.4,2.9,1.2
			c0.7,0.8,1.1,1.8,1.1,3.1c0,1.2-0.4,2.3-1.1,3.1s-1.7,1.2-2.9,1.2c-1.3,0-2.2-0.4-2.9-1.2
			C-109.142,600.607-109.542,599.607-109.542,598.307z M-108.142,598.307c0,1,0.2,1.7,0.7,2.3c0.5,0.6,1.1,0.8,1.8,0.8
			c0.7,0,1.3-0.3,1.8-0.8c0.5-0.6,0.7-1.3,0.7-2.3s-0.2-1.7-0.7-2.3c-0.5-0.6-1.1-0.8-1.8-0.8c-0.7,0-1.4,0.3-1.8,0.8
			C-107.842,596.607-108.142,597.407-108.142,598.307z"/>
		<path id="XMLID_830_" fill="#AFC6D6" d="M-99.942,602.407v-8.2h1.3v1.4c0.3-0.5,0.7-0.9,1.1-1.2c0.5-0.3,1-0.4,1.6-0.4
			c1.9,0,2.8,1,2.8,3v5.4h-1.4v-5.6c0-0.5-0.1-0.9-0.4-1.2c-0.3-0.3-0.7-0.4-1.2-0.4c-0.8,0-1.4,0.2-1.8,0.7s-0.6,1.1-0.6,1.9v4.6
			H-99.942L-99.942,602.407z"/>
		<path id="XMLID_829_" fill="#AFC6D6" d="M-91.642,599.907h1.4c0,1.1,0.8,1.6,2.2,1.6c0.5,0,1-0.1,1.4-0.3s0.6-0.5,0.6-1
			s-0.2-0.8-0.6-1s-1.1-0.4-2.1-0.6c-0.9-0.2-1.5-0.5-2-0.8c-0.5-0.3-0.7-0.8-0.7-1.5c0-0.8,0.3-1.4,0.9-1.7
			c0.6-0.4,1.3-0.6,2.1-0.6c2.2,0,3.3,0.9,3.4,2.6h-1.4c-0.1-0.9-0.7-1.4-1.9-1.4c-0.5,0-0.9,0.1-1.3,0.2c-0.3,0.2-0.5,0.4-0.5,0.8
			c0,0.3,0.1,0.5,0.4,0.7c0.2,0.2,0.6,0.3,1.1,0.4c0.5,0.1,0.9,0.2,1.2,0.3c0.8,0.2,1.5,0.4,2,0.8c0.5,0.3,0.7,0.9,0.7,1.6
			c0,0.9-0.3,1.5-1,2c-0.7,0.4-1.5,0.6-2.5,0.6s-1.8-0.2-2.5-0.7C-91.242,601.507-91.542,600.807-91.642,599.907z"/>
	</g>
</g>
</svg>
