<?xml version="1.0" encoding="utf-8"?>
<!-- Generator: Adobe Illustrator 19.0.0, SVG Export Plug-In . SVG Version: 6.00 Build 0)  -->
<svg version="1.1" id="Layer_1" xmlns="http://www.w3.org/2000/svg" xmlns:xlink="http://www.w3.org/1999/xlink" x="0px" y="0px"
	 viewBox="97.13 56.667 117.99 23" enable-background="new 97.13 56.667 117.99 23" xml:space="preserve">
<path fill="#AFC6D6" d="M118.851,62.884c0.347-0.369,0.553-0.659,0.62-0.923c0.058-0.238,0.132-0.98-0.478-1.427
	c0.131,0.195,0.127,0.407,0.12,0.61c0.007,0.077,0.009,0.145-0.002,0.186c0,0.001-0.001,0.003-0.002,0.004
	c0.013,0.549-0.95,1.345-2.234,2.52c0,0-2.126,2.002-3.679,3.38c-1.555,1.378-6.523,5.627-7.49,6.395
	c-0.768,0.611-3.292,2.525-4.416,3.376c0,0,0,0,0,0c-0.288,0.219-0.489,0.371-0.539,0.408c-0.001,0.001-0.004,0.002-0.006,0.003
	c-0.241,0.185-0.891,0.708-1.269,0.374c0.121,0.137,0.274,0.282,0.446,0.444c0.386,0.37,1.054-0.174,1.298-0.359
	c0.053-0.04,0.282-0.213,0.607-0.459c1.934,1.424,4.32,2.269,6.903,2.249c6.351-0.048,11.445-5.234,11.398-11.586l0.016-0.001
	C120.131,66.204,119.66,64.442,118.851,62.884z"/>
<path fill="#AFC6D6" d="M109.333,63.038c0.126-0.212,0.175-0.382-0.187-0.604c-0.362-0.222-1.571-0.918-1.811-1.1
	c-0.241-0.182-0.203-0.858,0.5-1.004c0.659-0.136,6.079-0.632,8.713-0.498c-2.08-1.978-4.892-3.188-7.989-3.165
	c-6.351,0.048-11.477,5.236-11.429,11.586c0.022,2.966,1.181,5.65,3.045,7.675c1.764-2.523,7.245-10.371,7.718-10.95
	C107.893,64.978,109.209,63.249,109.333,63.038z"/>
<path fill="#AFC6D6" d="M136.69,57.687v14.645c0,3.229-2.771,5.682-6.432,5.682c-3.659,0-6.432-2.453-6.432-5.682V61.129
	c0-1.893,1.489-3.442,3.348-3.442h0.234v14.62c0,1.736,1.517,2.801,2.982,2.801c1.41,0,2.929-0.986,2.929-2.801V60.943
	c0-1.788,1.436-3.257,3.187-3.257L136.69,57.687L136.69,57.687z"/>
<path fill="#AFC6D6" d="M144.017,63.05c4.759,0,5.524,2.772,5.524,4.432V77.82h-0.152c-1.757,0-3.259-1.531-3.259-3.352v-6.935
	c0-0.976-0.384-2.138-2.24-2.138c-0.865,0-1.375,0.107-1.936,0.318V77.82h-3.41V64.132C139.998,63.471,142.338,63.05,144.017,63.05"
	/>
<path fill="#AFC6D6" d="M153.174,58.083c1.047,0,1.884,0.782,1.884,1.746c0,0.939-0.837,1.696-1.884,1.696
	c-1.048,0-1.913-0.756-1.913-1.696C151.26,58.865,152.126,58.083,153.174,58.083"/>
<path fill="#AFC6D6" d="M154.888,63.219L154.888,63.219v11.317c0,1.797-1.466,3.284-3.297,3.284h-0.159V63.219H154.888z"/>
<path fill="#AFC6D6" d="M164.49,57.472c1.613,0,3.123,0.373,4.376,1.169v3.511c-0.766-1.037-1.867-1.754-3.633-1.754
	c-3.482,0-5.63,3.562-5.63,7.26c0,3.485,2.251,7.286,5.63,7.286c1.484,0,2.84-0.451,3.633-1.569v3.456
	c-0.996,0.774-2.558,1.198-4.401,1.198c-5.529,0-8.445-5.266-8.445-10.345C156.02,62.685,158.936,57.472,164.49,57.472"/>
<path fill="#AFC6D6" d="M174.854,63.047c0.577,0,1.31,0.053,1.964,0.159v2.823c-1.204-0.869-2.802-0.579-3.509-0.21v8.678
	c0,1.818-1.491,3.323-3.3,3.323h-0.183V64.182C171.19,63.523,172.578,63.047,174.854,63.047"/>
<path fill="#AFC6D6" d="M189.421,70.027c0-4.437-2.12-7-5.945-7c-3.874,0-6.231,2.933-6.231,7.447c0,4.651,2.541,7.554,6.809,7.554
	c2.358,0,4.007-0.58,4.899-1.057v-2.929c-0.891,0.633-2.123,1.426-4.559,1.426c-2.199,0-3.405-1.268-3.694-3.672l8.721-1.214
	L189.421,70.027z M180.492,69.393c0-2.613,0.916-4.016,2.88-4.067h0.131c0.971,0,2.777,0.316,2.881,3.247L180.492,69.393z"/>
<path fill="#AFC6D6" d="M201.823,58.162c-1.834,0-3.301,1.488-3.301,3.313v2.527c-0.551-0.128-1.179-0.208-1.912-0.208
	c-3.773,0-6.208,2.869-6.208,7.326c0,4.408,2.331,6.859,6.599,6.91h0.237c1.153,0,3.902-0.209,4.74-0.393V58.162H201.823z
	 M198.33,75.869c-0.263,0.052-1.075,0.134-1.441,0.134c-2.171,0-3.248-1.631-3.248-4.928c0-2.356,0.603-5.195,3.484-5.195
	c0.444,0,0.839,0.053,1.205,0.16L198.33,75.869L198.33,75.869z"/>
<path fill="#AFC6D6" d="M205.681,58.083c1.048,0,1.887,0.782,1.887,1.746c0,0.939-0.839,1.696-1.887,1.696s-1.912-0.756-1.912-1.696
	C203.769,58.865,204.634,58.083,205.681,58.083"/>
<path fill="#AFC6D6" d="M207.34,63.107L207.34,63.107V74.5c0,1.809-1.467,3.307-3.301,3.307h-0.155V63.107H207.34z"/>
<path fill="#AFC6D6" d="M212.869,58.162v4.945h1.993v2.741h-1.993v7.906c0,0.938,0.315,1.225,1.336,1.225
	c0.261,0,0.655-0.077,0.915-0.182v2.894c-0.157,0.052-0.836,0.338-1.753,0.338c-2.567,0-3.981-1.252-3.981-3.521v-8.66h-0.86v-2.741
	h0.86v-1.661c0-1.798,1.466-3.285,3.274-3.285L212.869,58.162L212.869,58.162z"/>
</svg>
