<?xml version="1.0" encoding="utf-8"?>
<!-- Generator: Adobe Illustrator 19.0.0, SVG Export Plug-In . SVG Version: 6.00 Build 0)  -->
<svg version="1.1" id="Layer_1" xmlns="http://www.w3.org/2000/svg" xmlns:xlink="http://www.w3.org/1999/xlink" x="0px" y="0px"
	 viewBox="0 0 38.543 54.914" enable-background="new 0 0 38.543 54.914" xml:space="preserve">
<g id="XMLID_28_">
	<path id="XMLID_29_" fill="#62C8FF" d="M5.607,5.607C9.346,1.869,13.877,0,19.207,0c5.328,0,9.881,1.869,13.665,5.607
		c3.779,3.738,5.672,8.272,5.672,13.6c0,2.665-0.668,5.736-1.998,9.217c-1.334,3.48-2.945,6.703-4.834,9.668
		c-1.893,2.965-3.783,5.759-5.672,8.379c-1.892,2.622-3.481,4.705-4.77,6.252l-2.062,2.191c-0.516-0.516-1.205-1.289-2.062-2.32
		c-0.86-1.031-2.385-3.029-4.576-5.994s-4.147-5.843-5.865-8.637c-1.72-2.792-3.267-5.95-4.641-9.475
		C0.687,24.966,0,21.872,0,19.207C0,13.88,1.869,9.346,5.607,5.607z M14.373,24.041c1.332,1.333,2.943,1.998,4.834,1.998
		c1.889,0,3.523-0.665,4.898-1.998c1.374-1.331,2.063-2.942,2.063-4.834c0-1.89-0.689-3.501-2.063-4.834
		c-1.375-1.331-3.009-1.998-4.898-1.998c-1.891,0-3.502,0.667-4.834,1.998c-1.333,1.333-1.998,2.944-1.998,4.834
		C12.375,21.099,13.04,22.71,14.373,24.041z"/>
</g>
</svg>
