<?xml version="1.0" encoding="utf-8"?>
<!-- Generator: Adobe Illustrator 19.0.0, SVG Export Plug-In . SVG Version: 6.00 Build 0)  -->
<svg version="1.1" id="Layer_1" xmlns="http://www.w3.org/2000/svg" xmlns:xlink="http://www.w3.org/1999/xlink" x="0px" y="0px"
	 viewBox="-558 376 162.245 84.897" enable-background="new -558 376 162.245 84.897" xml:space="preserve">
<g>
	<path fill="#EC1D24" d="M-518.82,400.981c-1.536,0-2.949,0.511-4.091,1.363c-1.667,1.244-2.751,3.223-2.751,5.46
		c0,2.227,1.075,4.2,2.731,5.445c1.145,0.862,2.566,1.378,4.111,1.378c3.779,0,6.842-3.055,6.842-6.823
		C-511.978,404.036-515.042,400.981-518.82,400.981z"/>
	<path fill="#EC1D24" d="M-536.065,413.487c-1.084,0.72-2.385,1.141-3.785,1.141c-3.779,0-6.842-3.055-6.842-6.823
		s3.063-6.823,6.842-6.823c1.391,0,2.684,0.417,3.764,1.128c1.188-3.701,3.708-6.973,6.747-9.209
		c-2.955-2.175-6.785-3.367-10.713-3.367c-9.912-0.002-17.948,8.162-17.948,18.232S-549.964,426-540.052,426
		c3.928,0,7.758-1.169,10.713-3.343C-532.361,420.433-534.87,417.16-536.065,413.487z"/>
	<path fill="#EC1D24" d="M-490.402,393.821l-0.318-3.494h-10.863v34.689h11.182l0.127-18.202c0.699-6.258,5.499-7.805,11.849-6.417
		l1.842-9.911C-481.728,388.776-486.392,389.585-490.402,393.821z"/>
	<path fill="#EC1D24" d="M-448.089,376l0.091,14.772c-0.074-0.041-0.144-0.089-0.218-0.128c-1.677-0.659-3.255-0.996-5.527-0.996
		c-11.055,0-18.679,8.191-18.679,18.156c0,9.965,6.112,18.152,15.2,18.152c3.692,0,6.591-1.179,9.419-3.721l0.349,2.78h10.483V376
		H-448.089z M-448.077,410.983c-0.973,3.74-3.26,5.313-6.214,5.313c-4.384,0.005-6.769-3.359-6.742-8.41
		c0.295-4.596,2.502-8.434,8.077-8.648c2.025-0.011,3.621,0.214,4.88,1.31v10.435H-448.077z"/>
	<path fill="#EC1D24" d="M-411.439,389.183c-6.673,0.054-11.899,1.656-15.685,4.797l4.892,7.147
		c7.489-5.226,15.994-3.32,15.756,1.493c-1.922-0.206-4.304-0.206-6.131-0.206c-10.022,0-15.47,5.825-15.47,12.129
		c0,8.281,5.561,11.414,12.421,11.414c3.581,0,6.985-1.381,9.252-3.609l0.214,2.668h10.435v-22.523
		C-396.904,394.987-400.167,389.07-411.439,389.183z M-406.729,413.766c-1.557,4.34-5.905,3.886-6.728,3.906
		c-2.197,0.054-3.804-1.559-3.804-3.625s1.722-3.45,3.74-3.891c1.987-0.434,6.299-0.357,6.951,0
		C-406.571,410.156-406.571,411.546-406.729,413.766z"/>
</g>
<g>
	<path d="M-552.592,447.398c0,2.184,1.026,3.276,3.081,3.276c1.1,0,1.932-0.447,2.491-1.344h4.902
		c-0.989,3.286-3.464,4.929-7.422,4.929c-1.213,0-2.325-0.182-3.333-0.545c-1.008-0.365-1.872-0.883-2.59-1.555
		s-1.274-1.475-1.666-2.409c-0.393-0.934-0.588-1.979-0.588-3.135c0-1.196,0.188-2.274,0.561-3.235
		c0.373-0.961,0.905-1.778,1.596-2.452c0.69-0.672,1.526-1.19,2.506-1.553c0.981-0.365,2.086-0.547,3.319-0.547
		c1.213,0,2.305,0.182,3.276,0.547c0.971,0.363,1.793,0.891,2.465,1.582c0.672,0.69,1.186,1.535,1.539,2.534
		c0.356,1,0.533,2.124,0.533,3.376v0.531H-552.592z M-546.655,444.458c-0.168-0.709-0.514-1.28-1.037-1.709
		c-0.522-0.428-1.156-0.643-1.903-0.643c-0.785,0-1.424,0.205-1.918,0.615c-0.496,0.41-0.809,0.99-0.94,1.737H-546.655z"/>
	<path d="M-537.644,439.361h5.07v1.819c0.69-0.84,1.391-1.405,2.1-1.694c0.709-0.289,1.539-0.434,2.493-0.434
		c1.008,0,1.872,0.164,2.59,0.49c0.719,0.326,1.33,0.789,1.834,1.385c0.41,0.486,0.69,1.028,0.84,1.625
		c0.148,0.598,0.225,1.28,0.225,2.043v9.131h-5.07v-7.254c0-0.709-0.053-1.284-0.154-1.723c-0.104-0.438-0.285-0.787-0.547-1.049
		c-0.223-0.225-0.475-0.383-0.756-0.477c-0.279-0.094-0.578-0.141-0.895-0.141c-0.86,0-1.518,0.258-1.975,0.772
		c-0.457,0.514-0.686,1.246-0.686,2.198v7.674h-5.07V439.361z"/>
	<path d="M-511.975,443.589v10.139h-5.07v-10.139h-1.68v-4.228h1.68v-4.313h5.07v4.313h2.883v4.228H-511.975z"/>
	<path d="M-501.155,447.398c0,2.184,1.026,3.276,3.081,3.276c1.1,0,1.932-0.447,2.491-1.344h4.902
		c-0.988,3.286-3.464,4.929-7.422,4.929c-1.213,0-2.325-0.182-3.333-0.545c-1.008-0.365-1.872-0.883-2.59-1.555
		c-0.719-0.672-1.274-1.475-1.666-2.409c-0.393-0.934-0.588-1.979-0.588-3.135c0-1.196,0.188-2.274,0.561-3.235
		c0.373-0.961,0.904-1.778,1.596-2.452c0.69-0.672,1.526-1.19,2.506-1.553c0.981-0.365,2.086-0.547,3.319-0.547
		c1.213,0,2.305,0.182,3.276,0.547c0.971,0.363,1.793,0.891,2.465,1.582c0.672,0.69,1.186,1.535,1.539,2.534
		c0.356,1,0.533,2.124,0.533,3.376v0.531H-501.155z M-495.218,444.458c-0.168-0.709-0.514-1.28-1.037-1.709
		c-0.522-0.428-1.157-0.643-1.903-0.643c-0.785,0-1.424,0.205-1.918,0.615c-0.496,0.41-0.809,0.99-0.94,1.737H-495.218z"/>
	<path d="M-486.204,439.361h5.07v2.352c0.541-0.86,1.203-1.518,1.989-1.975c0.783-0.457,1.698-0.686,2.743-0.686
		c0.131,0,0.275,0,0.436,0c0.158,0,0.34,0.02,0.545,0.057v4.845c-0.672-0.336-1.401-0.504-2.184-0.504
		c-1.176,0-2.059,0.35-2.647,1.049c-0.588,0.701-0.881,1.723-0.881,3.067v6.162h-5.07V439.361z"/>
	<path d="M-466.766,460.897h-5.07v-21.536h5.07v1.596c1.082-1.364,2.557-2.045,4.425-2.045c1.026,0,1.983,0.201,2.87,0.602
		c0.887,0.402,1.657,0.949,2.311,1.639c0.652,0.692,1.162,1.504,1.526,2.436c0.365,0.934,0.547,1.934,0.547,2.997
		c0,1.065-0.182,2.055-0.547,2.969c-0.363,0.914-0.867,1.717-1.512,2.409c-0.645,0.692-1.405,1.233-2.282,1.623
		c-0.879,0.393-1.831,0.588-2.858,0.588c-1.791,0-3.286-0.615-4.48-1.848V460.897z M-460.381,446.585
		c0-0.447-0.08-0.871-0.238-1.274c-0.158-0.4-0.387-0.752-0.686-1.051c-0.299-0.297-0.649-0.535-1.049-0.713
		c-0.402-0.178-0.836-0.266-1.303-0.266c-0.447,0-0.867,0.084-1.26,0.252c-0.393,0.168-0.733,0.4-1.022,0.699
		c-0.291,0.299-0.524,0.649-0.701,1.051c-0.178,0.4-0.266,0.826-0.266,1.274c0,0.447,0.084,0.867,0.252,1.26s0.4,0.733,0.699,1.022
		c0.299,0.291,0.649,0.524,1.051,0.701c0.4,0.178,0.826,0.266,1.274,0.266c0.449,0,0.869-0.084,1.26-0.252
		c0.393-0.168,0.733-0.4,1.024-0.699c0.289-0.299,0.522-0.645,0.699-1.037C-460.469,447.426-460.381,447.015-460.381,446.585z"/>
	<path d="M-450.856,439.361h5.07v2.352c0.541-0.86,1.203-1.518,1.989-1.975c0.783-0.457,1.698-0.686,2.743-0.686
		c0.131,0,0.275,0,0.436,0c0.158,0,0.34,0.02,0.545,0.057v4.845c-0.672-0.336-1.401-0.504-2.184-0.504
		c-1.176,0-2.059,0.35-2.647,1.049c-0.588,0.701-0.881,1.723-0.881,3.067v6.162h-5.07V439.361z"/>
	<path fill="#EC1D24" d="M-436.956,433.842c0-0.391,0.074-0.76,0.223-1.106c0.15-0.346,0.356-0.649,0.617-0.91
		c0.262-0.26,0.565-0.467,0.91-0.615c0.346-0.15,0.713-0.225,1.106-0.225s0.76,0.074,1.106,0.225
		c0.346,0.148,0.649,0.356,0.91,0.615c0.262,0.262,0.467,0.565,0.617,0.91c0.148,0.346,0.223,0.715,0.223,1.106
		c0,0.393-0.074,0.762-0.223,1.108c-0.15,0.346-0.356,0.649-0.617,0.91s-0.565,0.467-0.91,0.615
		c-0.346,0.15-0.713,0.225-1.106,0.225s-0.76-0.074-1.106-0.225c-0.346-0.148-0.649-0.354-0.91-0.615s-0.467-0.565-0.617-0.91
		C-436.882,434.604-436.956,434.235-436.956,433.842z"/>
	<rect x="-436.62" y="439.361" width="5.07" height="14.367"/>
	<path d="M-417.287,443.057c-0.934-0.484-1.848-0.729-2.745-0.729c-0.467,0-0.844,0.094-1.133,0.281
		c-0.291,0.186-0.436,0.438-0.436,0.756c0,0.168,0.023,0.303,0.07,0.406c0.047,0.102,0.15,0.199,0.309,0.293
		c0.158,0.094,0.393,0.178,0.699,0.252c0.309,0.074,0.715,0.168,1.219,0.279c1.401,0.281,2.446,0.781,3.137,1.498
		c0.69,0.719,1.035,1.639,1.035,2.76c0,0.84-0.168,1.596-0.504,2.268c-0.336,0.672-0.803,1.237-1.401,1.694
		c-0.598,0.457-1.317,0.813-2.157,1.065c-0.84,0.252-1.764,0.377-2.772,0.377c-1.942,0-3.856-0.549-5.742-1.651l1.848-3.585
		c1.418,0.971,2.764,1.455,4.034,1.455c0.465,0,0.848-0.102,1.147-0.309c0.299-0.205,0.449-0.465,0.449-0.783
		c0-0.188-0.023-0.34-0.07-0.463c-0.047-0.121-0.145-0.232-0.295-0.336c-0.148-0.102-0.367-0.195-0.656-0.279
		c-0.291-0.084-0.668-0.172-1.135-0.266c-1.569-0.318-2.665-0.789-3.292-1.414c-0.625-0.625-0.938-1.489-0.938-2.59
		c0-0.803,0.15-1.528,0.449-2.17c0.297-0.645,0.727-1.192,1.287-1.639c0.561-0.447,1.237-0.793,2.03-1.035s1.676-0.365,2.647-0.365
		c1.586,0,3.128,0.309,4.622,0.924L-417.287,443.057z"/>
	<path d="M-406.707,447.398c0,2.184,1.026,3.276,3.081,3.276c1.1,0,1.932-0.447,2.491-1.344h4.902
		c-0.988,3.286-3.464,4.929-7.422,4.929c-1.213,0-2.325-0.182-3.333-0.545c-1.008-0.365-1.872-0.883-2.59-1.555
		c-0.719-0.672-1.274-1.475-1.666-2.409c-0.393-0.934-0.588-1.979-0.588-3.135c0-1.196,0.188-2.274,0.561-3.235
		s0.905-1.778,1.596-2.452c0.69-0.672,1.526-1.19,2.506-1.553c0.981-0.365,2.086-0.547,3.319-0.547c1.213,0,2.305,0.182,3.276,0.547
		c0.971,0.363,1.793,0.891,2.465,1.582c0.672,0.69,1.186,1.535,1.539,2.534c0.356,1,0.533,2.124,0.533,3.376v0.531H-406.707z
		 M-400.77,444.458c-0.168-0.709-0.514-1.28-1.037-1.709c-0.522-0.428-1.157-0.643-1.903-0.643c-0.785,0-1.424,0.205-1.918,0.615
		c-0.496,0.41-0.809,0.99-0.94,1.737H-400.77z"/>
</g>
</svg>
