<?xml version="1.0" encoding="utf-8"?>
<!-- Generator: Adobe Illustrator 19.0.0, SVG Export Plug-In . SVG Version: 6.00 Build 0)  -->
<svg version="1.1" id="IndustriaLogo" xmlns="http://www.w3.org/2000/svg" xmlns:xlink="http://www.w3.org/1999/xlink" x="0px" y="0px"
	 viewBox="-140.415 660.835 220.829 25" enable-background="new -140.415 660.835 220.829 25" xml:space="preserve">
<g>
	<path d="M-135.495,685.224h-4.92v-23.698h4.92V685.224z"/>
	<path d="M-124.667,661.526h5.191l9.407,16.524v-16.524h4.614v23.698h-4.951l-9.647-16.814v16.814h-4.614V661.526z"
		/>
	<path d="M-81.376,662.041c1.662,0.547,3.009,1.549,4.039,3.006c0.826,1.179,1.389,2.455,1.689,3.826
		c0.3,1.372,0.451,2.68,0.451,3.923c0,3.151-0.633,5.82-1.899,8.006c-1.716,2.948-4.366,4.421-7.948,4.421h-10.217v-23.698h10.217
		C-83.575,661.548-82.353,661.719-81.376,662.041z M-90.455,665.642v15.466h4.573c2.34,0,3.972-1.152,4.895-3.457
		c0.504-1.265,0.757-2.771,0.757-4.518c0-2.412-0.379-4.263-1.135-5.555c-0.757-1.292-2.262-1.937-4.517-1.937H-90.455z"/>
	<path d="M-66.427,661.526h5.032v14.554c0,1.628,0.192,2.816,0.577,3.566c0.598,1.328,1.901,1.992,3.909,1.992
		c1.997,0,3.295-0.664,3.893-1.992c0.384-0.75,0.577-1.938,0.577-3.566v-14.554h5.032v14.566c0,2.519-0.391,4.48-1.172,5.884
		c-1.455,2.572-4.232,3.858-8.33,3.858c-4.098,0-6.88-1.286-8.346-3.858c-0.781-1.404-1.172-3.365-1.172-5.884V661.526z"/>
	<path d="M-33.356,677.909c0.153,1.083,0.454,1.892,0.903,2.427c0.821,0.975,2.227,1.463,4.219,1.463
		c1.193,0,2.161-0.129,2.905-0.386c1.412-0.493,2.118-1.409,2.118-2.749c0-0.782-0.346-1.388-1.037-1.817
		c-0.692-0.418-1.789-0.788-3.29-1.109l-2.566-0.563c-2.521-0.557-4.254-1.163-5.197-1.817c-1.597-1.093-2.396-2.803-2.396-5.129
		c0-2.122,0.781-3.885,2.343-5.289c1.562-1.404,3.857-2.106,6.885-2.106c2.528,0,4.684,0.662,6.469,1.986
		c1.785,1.324,2.721,3.245,2.808,5.764h-4.759c-0.088-1.425-0.725-2.438-1.912-3.039c-0.791-0.396-1.775-0.595-2.95-0.595
		c-1.308,0-2.352,0.257-3.132,0.772s-1.17,1.233-1.17,2.154c0,0.847,0.385,1.479,1.154,1.897c0.494,0.279,1.544,0.606,3.148,0.981
		l4.159,0.981c1.823,0.429,3.189,1.002,4.099,1.72c1.412,1.115,2.119,2.728,2.119,4.839c0,2.165-0.837,3.963-2.511,5.394
		c-1.674,1.431-4.038,2.146-7.093,2.146c-3.12,0-5.574-0.705-7.361-2.114c-1.788-1.409-2.681-3.346-2.681-5.812H-33.356z"/>
	<path d="M6.738,661.526v4.196h-7.09v19.502h-4.984v-19.502h-7.122v-4.196H6.738z"/>
	<path d="M29.462,662.137c0.873,0.375,1.612,0.927,2.218,1.656c0.502,0.6,0.899,1.265,1.191,1.993
		c0.293,0.729,0.439,1.56,0.439,2.492c0,1.125-0.284,2.232-0.852,3.32c-0.568,1.088-1.506,1.857-2.813,2.307
		c1.093,0.44,1.867,1.064,2.323,1.873c0.455,0.809,0.683,2.044,0.683,3.706v1.592c0,1.083,0.043,1.817,0.131,2.203
		c0.131,0.611,0.435,1.061,0.914,1.351v0.595h-5.466c-0.15-0.525-0.257-0.949-0.321-1.27c-0.129-0.664-0.199-1.345-0.209-2.042
		l-0.032-2.203c-0.02-1.511-0.281-2.518-0.783-3.022c-0.502-0.504-1.442-0.756-2.821-0.756h-4.836v9.293h-4.839v-23.698h11.335
		C27.343,661.558,28.589,661.762,29.462,662.137z M19.227,665.642v6.367h5.329c1.059,0,1.853-0.129,2.382-0.386
		c0.937-0.45,1.405-1.34,1.405-2.669c0-1.436-0.453-2.401-1.359-2.894c-0.509-0.279-1.272-0.418-2.29-0.418H19.227z"/>
	<path d="M49.338,685.224h-4.92v-23.698h4.92V685.224z"/>
	<path d="M72.171,676.269l-2.994-9.325l-3.075,9.325l-1.347,4.084l-1.606,4.871h-5.18l8.46-23.698h5.603
		l8.384,23.698h-5.37l-1.564-4.871L72.171,676.269z"/>
</g>
</svg>
