<?xml version="1.0" encoding="utf-8"?>
<!-- Generator: Adobe Illustrator 19.0.0, SVG Export Plug-In . SVG Version: 6.00 Build 0)  -->
<svg version="1.1" id="Layer_1" xmlns="http://www.w3.org/2000/svg" xmlns:xlink="http://www.w3.org/1999/xlink" x="0px" y="0px"
	 viewBox="0 0 98.199 20" enable-background="new 0 0 98.199 20" xml:space="preserve">
<g>
	<g>
		<path fill="#AFC6D6" d="M30.16,7.127v1.928h3.619v1.862H30.16v3.632h-2.232V5.198h6.155v1.929H30.16z"/>
		<path fill="#AFC6D6" d="M37.517,14.55V5.198h2.272v9.352H37.517z"/>
		<path fill="#AFC6D6" d="M49.63,14.55l-3.765-6.116h-0.04l0.053,6.116h-2.193V5.198h2.576l3.751,6.103h0.04l-0.053-6.103h2.193
			v9.352H49.63z"/>
		<path fill="#AFC6D6" d="M60.091,7.127v7.423h-2.259V7.127h-2.642V5.198h7.542v1.929H60.091z"/>
		<path fill="#AFC6D6" d="M65.745,14.55V5.198h6.287v1.902h-4.108v1.77h3.883v1.81h-3.883v1.942h4.346v1.928H65.745z"/>
		<path fill="#AFC6D6" d="M83.385,12.562c-0.19,0.462-0.46,0.859-0.812,1.189c-0.352,0.33-0.777,0.588-1.275,0.773
			c-0.498,0.185-1.05,0.277-1.658,0.277c-0.617,0-1.171-0.093-1.665-0.277c-0.493-0.185-0.911-0.443-1.255-0.773
			c-0.343-0.33-0.608-0.726-0.793-1.189c-0.185-0.462-0.277-0.975-0.277-1.539V5.198h2.246v5.64c0,0.255,0.033,0.498,0.099,0.726
			c0.066,0.229,0.167,0.434,0.304,0.614c0.136,0.181,0.317,0.324,0.542,0.429c0.224,0.106,0.495,0.158,0.812,0.158
			s0.588-0.053,0.812-0.158c0.224-0.106,0.407-0.249,0.548-0.429s0.242-0.385,0.304-0.614c0.061-0.229,0.092-0.471,0.092-0.726
			v-5.64h2.259v5.825C83.669,11.587,83.574,12.1,83.385,12.562z"/>
	</g>
	<g>
		<path fill="#AFC6D6" d="M95.98,14.55l0.053-6.618h-0.04l-2.43,6.618h-1.585l-2.364-6.618h-0.04l0.053,6.618H87.5V5.198h3.213
			l2.129,5.997h0.053l2.037-5.997h3.267v9.352H95.98z"/>
	</g>
</g>
<g>
	<polygon fill="#F2F2F2" points="22.996,5.276 22.996,2.714 11.568,10 22.996,17.286 22.996,14.724 15.587,10 	"/>
</g>
<g>
	<polygon fill="#AFC6D6" points="15.686,10 0,0 0,2.714 11.429,10 0,17.286 0,20 	"/>
</g>
</svg>
