<?xml version="1.0" encoding="utf-8"?>
<!-- Generator: Adobe Illustrator 19.0.0, SVG Export Plug-In . SVG Version: 6.00 Build 0)  -->
<svg version="1.1" id="uniqa" xmlns="http://www.w3.org/2000/svg" xmlns:xlink="http://www.w3.org/1999/xlink" x="0px" y="0px"
	 viewBox="0 0 117.554 20" enable-background="new 0 0 117.554 20" xml:space="preserve">
<g id="XMLID_2_">
	<path id="XMLID_16_" d="M32.067,0.601h3.525v10.352c0,3.425,2.042,5.468,4.726,5.468
		c2.704,0,4.727-2.043,4.727-5.468V0.601h3.504v11.092c0,4.327-3.224,8.01-8.23,8.01c-5.006,0-8.25-3.684-8.25-8.01L32.067,0.601
		L32.067,0.601z"/>
	<polygon id="XMLID_15_" points="68.052,19.284 68.052,0.601 64.568,0.601 64.568,12.274 54.375,0.601 52.472,0.601 
		52.472,19.264 55.956,19.264 55.956,7.65 66.13,19.284 68.052,19.284 	"/>
	<polygon id="XMLID_14_" points="72.197,0.601 75.801,0.601 75.801,19.264 72.197,19.264 	"/>
	<path id="XMLID_11_" d="M88.899,3.124c3.585,0,6.508,3.044,6.508,6.809c0,1.282-0.342,2.482-0.942,3.524
		l-2.143-2.162l-2.282,2.284l2.202,2.202c-0.98,0.621-2.123,0.961-3.344,0.961c-3.606,0-6.509-3.045-6.509-6.809
		C82.39,6.168,85.293,3.124,88.899,3.124L88.899,3.124L88.899,3.124z M88.899,0c-5.548,0-10.034,4.446-10.034,9.932
		s4.487,9.933,10.034,9.933c2.102,0,4.065-0.641,5.667-1.743l1.643,1.621l2.283-2.282l-1.582-1.563
		c1.261-1.662,2.022-3.724,2.022-5.967C98.931,4.446,94.425,0,88.899,0L88.899,0L88.899,0z"/>
	<path id="XMLID_8_" d="M108.283,12.675h-2.744l2.744-6.609l0.06-0.099l2.703,6.707L108.283,12.675L108.283,12.675
		L108.283,12.675z M108.283,0.601h-1.082l-8.17,18.663h3.746l1.481-3.525h8.03l1.421,3.525h3.846l-7.95-18.663L108.283,0.601
		L108.283,0.601L108.283,0.601z"/>
	<g id="XMLID_3_">
		<path id="XMLID_7_" d="M14.365,17.241c-1.493-1.081-2.523-2.286-3.295-3.45c-2.255-3.428-1.936-6.868-0.886-8.577
			c0.041-0.041,0.927-0.978,2.162-1.647c1.04-0.608,2.091-0.906,3.007-1.02c-1.205,0.433-2.286,1.555-2.78,2.523
			c0,0-0.691,1.163-0.618,3.017c0.072,1.431,0.752,3.099,1.431,4.139c1.73,2.626,3.902,3.759,6.127,4.334
			c1.05,0.269,2.666,0.403,4.747,0.505c1.689,0.092,5.149,0.113,5.746,0.113h0.649l1.472,2.821c0,0-5.014,0.021-7.352-0.103
			C20.995,19.691,17.485,19.517,14.365,17.241L14.365,17.241L14.365,17.241z"/>
		<path id="XMLID_6_" d="M17.217,19.517c-0.813,0.205-1.617,0.298-2.358,0.298c-2.121-0.01-4.119-0.998-5.776-2.275
			c-1.977-1.525-3.429-3.635-3.789-5.952c-0.051-0.269-0.083-0.536-0.123-0.917C5.026,9.086,5.253,7.098,6.365,5.204
			c0.957-1.648,2.389-3.069,4.747-4.057c0.978-0.412,3.089-0.876,5.529-0.227c2.554,0.711,4.799,2.306,6.241,4.398
			c0,0-2.214-2.884-5.983-3.213c-0.175-0.01-0.35-0.02-0.515-0.02c-1.874-0.041-3.666,0.607-5.159,1.678
			c-0.947,0.67-1.781,1.524-2.43,2.502c-0.144,0.216-1.535,2.254-1.576,5.2c-0.031,2.564,1.112,4.407,1.545,5.035
			c0.01,0.01,1.081,0.731,2.698,1.04c1.132,0.216,2.43,0.113,2.667,0.03c0,0,0.659,0.515,1.534,0.968
			c1.071,0.566,2.09,0.834,2.09,0.834L17.217,19.517L17.217,19.517L17.217,19.517z"/>
		<path id="XMLID_5_" d="M12.326,19.815H0l1.246-2.214h7.218c0.443,0.371,1.071,0.824,1.751,1.225
			C10.914,19.239,11.666,19.599,12.326,19.815L12.326,19.815L12.326,19.815z"/>
		<path id="XMLID_4_" d="M24.425,10.291c0.185,2.472-1.421,5.21-2.235,6.25c-0.504-0.041-1.307-0.133-2.049-0.267
			c-0.731-0.135-1.442-0.392-1.586-0.444c0.989-0.804,2.43-2.43,3.099-4.706c1.02-3.47-0.268-6.27-1.647-7.63
			C23.158,5.255,24.332,7.995,24.425,10.291L24.425,10.291L24.425,10.291z"/>
	</g>
</g>
</svg>
