<?xml version="1.0" encoding="utf-8"?>
<!-- Generator: Adobe Illustrator 19.0.0, SVG Export Plug-In . SVG Version: 6.00 Build 0)  -->
<svg version="1.1" id="Capa_1" xmlns="http://www.w3.org/2000/svg" xmlns:xlink="http://www.w3.org/1999/xlink" x="0px" y="0px"
	 viewBox="-4564.941 3234.943 43.375 50" enable-background="new -4564.941 3234.943 43.375 50" xml:space="preserve">
<g>
	<g>
		<path fill="" d="M-4523.191,3243.555l-15.264-8.266c-1.448-0.784-3.439-0.181-4.224,1.267l-8.929,16.592h-10.86
			c-1.388,0-2.474,1.086-2.474,2.474v4.344v22.504c0,1.388,1.086,2.474,2.474,2.474h34.691c1.388,0,2.474-1.086,2.474-2.474v-6.275
			h1.026c0.543,0,0.965-0.422,0.965-0.965v-7.18c0-0.543-0.422-0.965-0.965-0.965h-1.026v-7.059c0-1.146-0.845-2.172-1.931-2.413
			l5.31-9.834C-4521.14,3246.27-4521.683,3244.4-4523.191,3243.555z M-4534.051,3239.875l-9.533,17.678h-2.715l10.196-18.764
			L-4534.051,3239.875z M-4540.929,3237.461c0.302-0.543,1.025-0.784,1.568-0.483l1.508,0.845l-10.619,19.729h-3.318
			L-4540.929,3237.461z M-4563.071,3255.561c0-0.181,0.242-0.482,0.543-0.482h9.834l-1.327,2.413h-8.507
			c-0.181,0-0.362,0-0.543,0.061V3255.561z M-4527.293,3282.47c0,0.302-0.241,0.543-0.543,0.543h-34.692
			c-0.301,0-0.543-0.241-0.543-0.543v-22.444c0-0.302,0.242-0.543,0.543-0.543h9.11h3.861h7.059h13.575h1.025
			c0.302,0,0.543,0.241,0.543,0.543v7.059h-3.68l0,0c-1.629,0-2.896,1.327-2.896,2.896v3.318c0,1.629,1.327,2.896,2.896,2.896h3.741
			V3282.47L-4527.293,3282.47z M-4525.363,3269.015h0.06v5.249h-0.06h-5.671c-0.543,0-0.965-0.422-0.965-0.965v-3.318
			c0-0.543,0.422-0.965,0.965-0.965H-4525.363z M-4523.674,3246.813l-5.792,10.74h-11.946l9.05-16.712l8.205,4.465
			C-4523.553,3245.546-4523.372,3246.27-4523.674,3246.813z"/>
	</g>
</g>
<g>
	<g>
		<path fill="" d="M-4527.354,3245.908l-0.482-0.241c-1.207-0.664-2.836-0.181-3.5,1.026l-0.604,1.146
			c-0.301,0.603-0.422,1.327-0.181,1.991c0.181,0.664,0.664,1.207,1.267,1.508l0.482,0.241c0.362,0.181,0.784,0.302,1.207,0.302
			c0.965,0,1.81-0.543,2.293-1.327l0.603-1.146C-4525.665,3248.14-4526.147,3246.572-4527.354,3245.908z M-4528.018,3248.502
			l-0.604,1.146c-0.181,0.302-0.603,0.422-0.905,0.241l-0.483-0.302c-0.121-0.06-0.241-0.241-0.301-0.362
			c-0.061-0.181-0.061-0.362,0.06-0.483l0.604-1.146c0.121-0.181,0.362-0.362,0.603-0.362c0.121,0,0.181,0,0.302,0.06l0.483,0.241
			C-4528.018,3247.778-4527.897,3248.14-4528.018,3248.502z"/>
	</g>
</g>
</svg>
