<?xml version="1.0" encoding="utf-8"?>
<!-- Generator: Adobe Illustrator 19.0.0, SVG Export Plug-In . SVG Version: 6.00 Build 0)  -->
<svg version="1.1" id="Layer_1" xmlns="http://www.w3.org/2000/svg" xmlns:xlink="http://www.w3.org/1999/xlink" x="0px" y="0px"
	 viewBox="-34 376 50 50" enable-background="new -34 376 50 50" xml:space="preserve">
<rect x="-34" y="376" fill="#F7DF1E" width="50" height="50"/>
<path d="M-0.413,415.063c1.007,1.644,2.317,2.853,4.635,2.853c1.947,0,3.19-0.973,3.19-2.317c0-1.611-1.278-2.182-3.421-3.119
	l-1.175-0.504c-3.39-1.444-5.643-3.254-5.643-7.079c0-3.524,2.685-6.206,6.881-6.206c2.987,0,5.135,1.04,6.683,3.762l-3.659,2.349
	c-0.806-1.444-1.675-2.013-3.024-2.013c-1.376,0-2.248,0.873-2.248,2.013c0,1.41,0.873,1.98,2.889,2.853l1.175,0.503
	c3.992,1.712,6.246,3.457,6.246,7.381c0,4.23-3.323,6.548-7.786,6.548c-4.363,0-7.183-2.079-8.562-4.805L-0.413,415.063z
	 M-17.01,415.47c0.738,1.31,1.41,2.417,3.024,2.417c1.544,0,2.517-0.604,2.517-2.952v-15.976h4.698v16.04
	c0,4.865-2.852,7.079-7.016,7.079c-3.762,0-5.94-1.947-7.048-4.292L-17.01,415.47z"/>
</svg>
