<?xml version="1.0" encoding="utf-8"?>
<!-- Generator: Adobe Illustrator 19.0.0, SVG Export Plug-In . SVG Version: 6.00 Build 0)  -->
<svg version="1.1" id="Layer_1" xmlns="http://www.w3.org/2000/svg" xmlns:xlink="http://www.w3.org/1999/xlink" x="0px" y="0px"
	 viewBox="-3738 2800.29 70 70" enable-background="new -3738 2800.29 70 70" xml:space="preserve">
<g id="XMLID_1992_">
	<g id="XMLID_605_">
		<path id="XMLID_606_" fill="#919EBD" d="M-3712.616,2817.015c0.755,0,1.367-0.612,1.367-1.367v-6.106
			c0-0.755-0.612-1.367-1.367-1.367c-0.755,0-1.367,0.612-1.367,1.367v6.107
			C-3713.983,2816.403-3713.371,2817.015-3712.616,2817.015z"/>
		<path id="XMLID_639_" fill="#919EBD" d="M-3702.983,2817.015c0.755,0,1.367-0.612,1.367-1.367v-6.106
			c0-0.755-0.612-1.367-1.367-1.367s-1.367,0.612-1.367,1.367v6.107C-3704.35,2816.403-3703.738,2817.015-3702.983,2817.015z"/>
		<path id="XMLID_640_" fill="#919EBD" d="M-3693.349,2817.015c0.755,0,1.367-0.612,1.367-1.367v-6.106
			c0-0.755-0.612-1.367-1.367-1.367c-0.755,0-1.367,0.612-1.367,1.367v6.107
			C-3694.717,2816.403-3694.104,2817.015-3693.349,2817.015z"/>
		<path id="XMLID_641_" fill="#919EBD" d="M-3713.983,2829.764c0,0.755,0.612,1.367,1.367,1.367c0.755,0,1.367-0.612,1.367-1.367
			v-6.107c0-0.755-0.612-1.367-1.367-1.367c-0.755,0-1.367,0.612-1.367,1.367V2829.764z"/>
		<path id="XMLID_642_" fill="#919EBD" d="M-3704.35,2829.764c0,0.755,0.612,1.367,1.367,1.367s1.367-0.612,1.367-1.367v-6.107
			c0-0.755-0.612-1.367-1.367-1.367s-1.367,0.612-1.367,1.367V2829.764L-3704.35,2829.764z"/>
		<path id="XMLID_758_" fill="#919EBD" d="M-3694.717,2829.764c0,0.755,0.612,1.367,1.367,1.367c0.755,0,1.367-0.612,1.367-1.367
			v-6.107c0-0.755-0.612-1.367-1.367-1.367c-0.755,0-1.367,0.612-1.367,1.367V2829.764z"/>
		<path id="XMLID_1086_" fill="#919EBD" d="M-3713.983,2843.88c0,0.755,0.612,1.367,1.367,1.367c0.755,0,1.367-0.612,1.367-1.367
			v-6.107c0-0.755-0.612-1.367-1.367-1.367c-0.755,0-1.367,0.612-1.367,1.367V2843.88z"/>
		<path id="XMLID_1087_" fill="#919EBD" d="M-3704.35,2843.88c0,0.755,0.612,1.367,1.367,1.367s1.367-0.612,1.367-1.367v-6.107
			c0-0.755-0.612-1.367-1.367-1.367s-1.367,0.612-1.367,1.367V2843.88L-3704.35,2843.88z"/>
		<path id="XMLID_1377_" fill="#919EBD" d="M-3694.717,2843.88c0,0.755,0.612,1.367,1.367,1.367c0.755,0,1.367-0.612,1.367-1.367
			v-6.107c0-0.755-0.612-1.367-1.367-1.367c-0.755,0-1.367,0.612-1.367,1.367V2843.88z"/>
		<path id="XMLID_1693_" fill="#919EBD" d="M-3728.293,2836.406c-0.755,0-1.367,0.612-1.367,1.367v6.107
			c0,0.755,0.612,1.367,1.367,1.367s1.367-0.612,1.367-1.367v-6.107C-3726.926,2837.018-3727.538,2836.406-3728.293,2836.406z"/>
		<path id="XMLID_1708_" fill="#919EBD" d="M-3728.293,2850.522c-0.755,0-1.367,0.612-1.367,1.367v6.107
			c0,0.755,0.612,1.367,1.367,1.367s1.367-0.612,1.367-1.367v-6.107C-3726.926,2851.134-3727.538,2850.522-3728.293,2850.522z"/>
		<path id="XMLID_1712_" fill="#919EBD" d="M-3713.983,2857.996c0,0.755,0.612,1.367,1.367,1.367c0.755,0,1.367-0.612,1.367-1.367
			v-6.107c0-0.755-0.612-1.367-1.367-1.367c-0.755,0-1.367,0.612-1.367,1.367V2857.996z"/>
		<path id="XMLID_1713_" fill="#919EBD" d="M-3704.35,2857.996c0,0.755,0.612,1.367,1.367,1.367s1.367-0.612,1.367-1.367v-6.107
			c0-0.755-0.612-1.367-1.367-1.367s-1.367,0.612-1.367,1.367V2857.996L-3704.35,2857.996z"/>
		<path id="XMLID_1717_" fill="#919EBD" d="M-3678.664,2836.683c0.36,0,0.712-0.146,0.967-0.401s0.401-0.607,0.401-0.967
			c0-0.361-0.146-0.712-0.401-0.967c-0.254-0.254-0.606-0.401-0.967-0.401c-0.36,0-0.712,0.146-0.967,0.401
			c-0.254,0.254-0.401,0.607-0.401,0.967c0,0.359,0.146,0.712,0.401,0.967S-3679.024,2836.683-3678.664,2836.683z"/>
		<path id="XMLID_1755_" fill="#919EBD" d="M-3668,2846.183v-15.076c0-5.88-4.784-10.664-10.664-10.664
			c-2.23,0-4.302,0.689-6.016,1.865v-19.283h1.846c0.755,0,1.367-0.612,1.367-1.367s-0.612-1.367-1.367-1.367h-3.213h-33.906h-3.213
			c-0.755,0-1.367,0.612-1.367,1.367s0.612,1.367,1.367,1.367h1.846v7.155c0,0.755,0.612,1.367,1.367,1.367s1.367-0.612,1.367-1.367
			v-7.155h31.172v21.738c0,0.079,0.008,0.155,0.021,0.23c-1.217,1.733-1.935,3.841-1.935,6.115v15.076
			c0,2.261,0.709,4.358,1.914,6.085v4.197c-0.787-0.257-1.62-0.394-2.476-0.394c-0.72,0-1.421,0.096-2.092,0.277v-4.459
			c0-0.755-0.612-1.367-1.367-1.367c-0.755,0-1.367,0.612-1.367,1.367v5.799c-0.892,0.675-1.644,1.537-2.192,2.543
			c-0.492-0.129-1-0.196-1.511-0.196c-3.279,0-5.947,2.668-5.947,5.947c0,0.534,0.073,1.063,0.213,1.572h-14.432v-46.439
			c0-0.755-0.612-1.367-1.367-1.367s-1.367,0.612-1.367,1.367v5.97h-15.312c-0.755,0-1.367,0.612-1.367,1.367v40.469
			c0,0.755,0.612,1.367,1.367,1.367h67.266c0.755,0,1.367-0.612,1.367-1.367s-0.612-1.367-1.367-1.367h-7.93v-10.799
			C-3672.06,2856.083-3668,2851.6-3668,2846.183z M-3735.266,2829.821h13.945v37.734h-13.945V2829.821z M-3678.664,2823.177
			c4.372,0,7.93,3.557,7.93,7.93v15.076c0,3.906-2.84,7.159-6.562,7.809v-13.208c0-0.755-0.612-1.367-1.367-1.367
			s-1.367,0.612-1.367,1.367v13.208c-3.723-0.65-6.562-3.903-6.562-7.809v-15.076
			C-3686.594,2826.735-3683.036,2823.177-3678.664,2823.177z M-3684.68,2854.983c1.357,0.931,2.94,1.554,4.648,1.774v4.432
			c-0.839-0.616-1.844-1.02-2.936-1.125c-0.456-0.788-1.038-1.481-1.712-2.061V2854.983z M-3686.047,2867.556h-15.174
			c-0.268-0.477-0.412-1.019-0.412-1.572c0-1.771,1.441-3.213,3.213-3.213c0.549,0,1.09,0.141,1.566,0.408
			c0.356,0.199,0.783,0.229,1.163,0.082c0.38-0.147,0.675-0.458,0.803-0.845c0.714-2.159,2.722-3.61,4.997-3.61
			c2.09,0,3.983,1.238,4.823,3.155c0.23,0.524,0.761,0.849,1.334,0.816c0.063-0.004,0.126-0.006,0.189-0.006
			c1.771,0,3.213,1.441,3.213,3.213c0,0.553-0.144,1.095-0.412,1.572H-3686.047z"/>
		<path id="XMLID_1787_" fill="#919EBD" d="M-3720.108,2817.015c0.36,0,0.712-0.145,0.967-0.401
			c0.254-0.254,0.401-0.607,0.401-0.967s-0.146-0.711-0.401-0.967c-0.254-0.254-0.607-0.401-0.967-0.401s-0.712,0.146-0.967,0.401
			c-0.254,0.254-0.401,0.607-0.401,0.967s0.146,0.712,0.401,0.967C-3720.82,2816.87-3720.467,2817.015-3720.108,2817.015z"/>
	</g>
</g>
</svg>
